G04 MADE WITH FRITZING*
G04 WWW.FRITZING.ORG*
G04 DOUBLE SIDED*
G04 HOLES PLATED*
G04 CONTOUR ON CENTER OF CONTOUR VECTOR*
%ASAXBY*%
%FSLAX23Y23*%
%MOIN*%
%OFA0B0*%
%SFA1.0B1.0*%
%ADD10C,0.076000*%
%ADD11C,0.075000*%
%ADD12C,0.078000*%
%ADD13C,0.039370*%
%ADD14R,0.075000X0.075000*%
%ADD15R,0.063551X0.079280*%
%ADD16R,0.085470X0.022222*%
%ADD17C,0.024000*%
%ADD18C,0.016000*%
%LNCOPPER0*%
G90*
G70*
G54D10*
X439Y356D03*
X539Y356D03*
X639Y356D03*
X739Y356D03*
X839Y356D03*
X439Y856D03*
X539Y856D03*
X639Y856D03*
X739Y856D03*
X839Y856D03*
G54D11*
X1239Y456D03*
X1239Y756D03*
X1339Y456D03*
X1339Y756D03*
X1439Y456D03*
X1439Y756D03*
X1539Y456D03*
X1539Y756D03*
X1639Y456D03*
X1639Y756D03*
X1739Y456D03*
X1739Y756D03*
X1839Y456D03*
X1839Y756D03*
G54D12*
X839Y106D03*
X939Y106D03*
X1039Y106D03*
X1139Y106D03*
X239Y106D03*
X339Y106D03*
X1439Y106D03*
X1539Y106D03*
X1639Y106D03*
X1739Y106D03*
G54D13*
X588Y456D03*
X639Y706D03*
X739Y706D03*
G54D14*
X1239Y456D03*
G54D15*
X1083Y478D03*
X988Y476D03*
X988Y589D03*
X1083Y591D03*
G54D16*
X1036Y509D03*
X1038Y558D03*
G54D17*
X539Y206D02*
X539Y325D01*
D02*
X340Y206D02*
X539Y206D01*
D02*
X339Y136D02*
X340Y206D01*
D02*
X539Y206D02*
X539Y325D01*
D02*
X838Y206D02*
X539Y206D01*
D02*
X839Y136D02*
X838Y206D01*
D02*
X838Y206D02*
X839Y136D01*
D02*
X1140Y206D02*
X838Y206D01*
D02*
X1139Y136D02*
X1140Y206D01*
D02*
X1138Y206D02*
X1139Y136D01*
D02*
X1788Y206D02*
X1138Y206D01*
D02*
X1839Y257D02*
X1788Y206D01*
D02*
X1839Y427D02*
X1839Y257D01*
G54D18*
D02*
X639Y831D02*
X639Y719D01*
D02*
X1839Y606D02*
X1839Y733D01*
D02*
X1788Y556D02*
X1839Y606D01*
D02*
X689Y556D02*
X1788Y556D01*
D02*
X639Y505D02*
X689Y556D01*
D02*
X639Y381D02*
X639Y505D01*
D02*
X1684Y512D02*
X1723Y472D01*
D02*
X791Y510D02*
X1684Y512D01*
D02*
X740Y456D02*
X791Y510D01*
D02*
X739Y381D02*
X740Y456D01*
D02*
X739Y831D02*
X739Y719D01*
D02*
X539Y505D02*
X579Y465D01*
D02*
X539Y831D02*
X539Y505D01*
G04 End of Copper0*
M02*