; NON-PLATED HOLES START AT T1
; THROUGH (PLATED) HOLES START AT T100
M48
INCH
T100C0.015748
T101C0.038000
T102C0.035000
T103C0.039370
%
T100
X007388Y007058
X006388Y007058
T101
X008388Y001058
X017388Y001058
X002388Y001058
X015388Y001058
X010388Y001058
X009388Y001058
X003388Y001058
X016388Y001058
X011388Y001058
X014388Y001058
T102
X016388Y004558
X014388Y004558
X007388Y002613
X012388Y007558
X017388Y007558
X013388Y007558
X018388Y004558
X012388Y004558
X017388Y004558
X013388Y004558
X016388Y007558
X015388Y007558
X015388Y004558
X004388Y002613
X018388Y007558
X014388Y007558
T103
X004388Y003558
X005388Y008558
X008388Y003558
X005388Y003558
X006388Y003558
X007388Y008558
X006388Y008558
X004388Y008558
X008388Y008558
X007388Y003558
T00
M30
