G04 MADE WITH FRITZING*
G04 WWW.FRITZING.ORG*
G04 DOUBLE SIDED*
G04 HOLES PLATED*
G04 CONTOUR ON CENTER OF CONTOUR VECTOR*
%ASAXBY*%
%FSLAX23Y23*%
%MOIN*%
%OFA0B0*%
%SFA1.0B1.0*%
%ADD10C,0.075000*%
%ADD11C,0.076000*%
%ADD12C,0.078000*%
%ADD13C,0.039370*%
%ADD14R,0.075000X0.075000*%
%ADD15C,0.024000*%
%ADD16C,0.012000*%
%ADD17C,0.016000*%
%LNCOPPER1*%
G90*
G70*
G54D10*
X439Y261D03*
X739Y261D03*
G54D11*
X439Y356D03*
X539Y356D03*
X639Y356D03*
X739Y356D03*
X839Y356D03*
X439Y856D03*
X539Y856D03*
X639Y856D03*
X739Y856D03*
X839Y856D03*
G54D10*
X1239Y456D03*
X1239Y756D03*
X1339Y456D03*
X1339Y756D03*
X1439Y456D03*
X1439Y756D03*
X1539Y456D03*
X1539Y756D03*
X1639Y456D03*
X1639Y756D03*
X1739Y456D03*
X1739Y756D03*
X1839Y456D03*
X1839Y756D03*
G54D12*
X839Y106D03*
X939Y106D03*
X1039Y106D03*
X1139Y106D03*
X239Y106D03*
X339Y106D03*
X1439Y106D03*
X1539Y106D03*
X1639Y106D03*
X1739Y106D03*
G54D13*
X639Y706D03*
X739Y706D03*
G54D14*
X1239Y456D03*
G54D15*
X1210Y756D02*
X838Y757D01*
D02*
X838Y757D02*
X839Y825D01*
D02*
X240Y657D02*
X239Y136D01*
D02*
X340Y757D02*
X240Y657D01*
D02*
X838Y757D02*
X340Y757D01*
D02*
X839Y825D02*
X838Y757D01*
D02*
X939Y205D02*
X939Y136D01*
D02*
X238Y206D02*
X939Y205D01*
D02*
X239Y136D02*
X238Y206D01*
G54D16*
D02*
X1290Y306D02*
X1388Y306D01*
D02*
X1388Y306D02*
X1439Y255D01*
D02*
X1238Y355D02*
X1290Y306D01*
D02*
X1439Y255D02*
X1439Y130D01*
D02*
X1239Y433D02*
X1238Y355D01*
D02*
X1439Y433D02*
X1439Y356D01*
D02*
X1439Y356D02*
X1539Y256D01*
D02*
X1539Y256D02*
X1539Y130D01*
D02*
X1639Y433D02*
X1639Y130D01*
D02*
X1739Y733D02*
X1739Y556D01*
D02*
X1739Y556D02*
X1788Y505D01*
D02*
X1788Y505D02*
X1788Y306D01*
D02*
X1788Y306D02*
X1739Y255D01*
D02*
X1739Y255D02*
X1739Y130D01*
G54D17*
D02*
X989Y255D02*
X1039Y205D01*
D02*
X762Y261D02*
X989Y255D01*
D02*
X1039Y205D02*
X1039Y130D01*
D02*
X1339Y556D02*
X1339Y479D01*
D02*
X739Y605D02*
X1290Y605D01*
D02*
X1290Y605D02*
X1339Y556D01*
D02*
X648Y696D02*
X739Y605D01*
D02*
X1488Y656D02*
X1540Y606D01*
D02*
X788Y656D02*
X1488Y656D01*
D02*
X748Y696D02*
X788Y656D01*
D02*
X1540Y606D02*
X1539Y479D01*
G04 End of Copper1*
M02*