G04 MADE WITH FRITZING*
G04 WWW.FRITZING.ORG*
G04 DOUBLE SIDED*
G04 HOLES PLATED*
G04 CONTOUR ON CENTER OF CONTOUR VECTOR*
%ASAXBY*%
%FSLAX23Y23*%
%MOIN*%
%OFA0B0*%
%SFA1.0B1.0*%
%ADD10R,1.927050X0.963024X1.911050X0.947024*%
%ADD11C,0.008000*%
%ADD12R,0.001000X0.001000*%
%LNSILK0*%
G90*
G70*
G54D11*
X4Y959D02*
X1923Y959D01*
X1923Y4D01*
X4Y4D01*
X4Y959D01*
D02*
G54D12*
X1239Y904D02*
X1243Y904D01*
X1544Y904D02*
X1548Y904D01*
X1238Y903D02*
X1244Y903D01*
X1543Y903D02*
X1549Y903D01*
X1238Y902D02*
X1245Y902D01*
X1342Y902D02*
X1347Y902D01*
X1361Y902D02*
X1367Y902D01*
X1430Y902D02*
X1438Y902D01*
X1543Y902D02*
X1550Y902D01*
X1577Y902D02*
X1595Y902D01*
X1687Y902D02*
X1687Y902D01*
X1704Y902D02*
X1710Y902D01*
X1783Y902D02*
X1783Y902D01*
X1819Y902D02*
X1822Y902D01*
X1839Y902D02*
X1849Y902D01*
X1238Y901D02*
X1245Y901D01*
X1342Y901D02*
X1348Y901D01*
X1360Y901D02*
X1367Y901D01*
X1429Y901D02*
X1440Y901D01*
X1543Y901D02*
X1550Y901D01*
X1574Y901D02*
X1596Y901D01*
X1685Y901D02*
X1688Y901D01*
X1703Y901D02*
X1710Y901D01*
X1781Y901D02*
X1784Y901D01*
X1818Y901D02*
X1824Y901D01*
X1838Y901D02*
X1853Y901D01*
X1238Y900D02*
X1245Y900D01*
X1342Y900D02*
X1349Y900D01*
X1360Y900D02*
X1367Y900D01*
X1428Y900D02*
X1440Y900D01*
X1543Y900D02*
X1550Y900D01*
X1573Y900D02*
X1596Y900D01*
X1685Y900D02*
X1689Y900D01*
X1703Y900D02*
X1710Y900D01*
X1781Y900D02*
X1785Y900D01*
X1817Y900D02*
X1824Y900D01*
X1837Y900D02*
X1854Y900D01*
X1206Y899D02*
X1208Y899D01*
X1238Y899D02*
X1245Y899D01*
X1342Y899D02*
X1349Y899D01*
X1359Y899D02*
X1367Y899D01*
X1428Y899D02*
X1440Y899D01*
X1543Y899D02*
X1550Y899D01*
X1572Y899D02*
X1596Y899D01*
X1685Y899D02*
X1689Y899D01*
X1703Y899D02*
X1710Y899D01*
X1781Y899D02*
X1785Y899D01*
X1817Y899D02*
X1824Y899D01*
X1837Y899D02*
X1855Y899D01*
X1205Y898D02*
X1209Y898D01*
X1238Y898D02*
X1244Y898D01*
X1342Y898D02*
X1350Y898D01*
X1358Y898D02*
X1367Y898D01*
X1428Y898D02*
X1440Y898D01*
X1543Y898D02*
X1549Y898D01*
X1571Y898D02*
X1596Y898D01*
X1685Y898D02*
X1689Y898D01*
X1702Y898D02*
X1710Y898D01*
X1781Y898D02*
X1785Y898D01*
X1818Y898D02*
X1824Y898D01*
X1837Y898D02*
X1856Y898D01*
X1205Y897D02*
X1209Y897D01*
X1239Y897D02*
X1243Y897D01*
X1342Y897D02*
X1351Y897D01*
X1358Y897D02*
X1367Y897D01*
X1428Y897D02*
X1439Y897D01*
X1544Y897D02*
X1548Y897D01*
X1571Y897D02*
X1596Y897D01*
X1685Y897D02*
X1689Y897D01*
X1702Y897D02*
X1710Y897D01*
X1766Y897D02*
X1768Y897D01*
X1781Y897D02*
X1785Y897D01*
X1819Y897D02*
X1824Y897D01*
X1839Y897D02*
X1856Y897D01*
X1205Y896D02*
X1209Y896D01*
X1342Y896D02*
X1352Y896D01*
X1357Y896D02*
X1367Y896D01*
X1428Y896D02*
X1433Y896D01*
X1570Y896D02*
X1576Y896D01*
X1591Y896D02*
X1596Y896D01*
X1685Y896D02*
X1689Y896D01*
X1701Y896D02*
X1710Y896D01*
X1765Y896D02*
X1769Y896D01*
X1781Y896D02*
X1785Y896D01*
X1820Y896D02*
X1824Y896D01*
X1851Y896D02*
X1857Y896D01*
X1205Y895D02*
X1209Y895D01*
X1342Y895D02*
X1352Y895D01*
X1356Y895D02*
X1367Y895D01*
X1428Y895D02*
X1433Y895D01*
X1570Y895D02*
X1575Y895D01*
X1591Y895D02*
X1596Y895D01*
X1685Y895D02*
X1689Y895D01*
X1701Y895D02*
X1710Y895D01*
X1765Y895D02*
X1769Y895D01*
X1781Y895D02*
X1785Y895D01*
X1820Y895D02*
X1824Y895D01*
X1852Y895D02*
X1857Y895D01*
X1205Y894D02*
X1209Y894D01*
X1342Y894D02*
X1353Y894D01*
X1356Y894D02*
X1367Y894D01*
X1428Y894D02*
X1433Y894D01*
X1570Y894D02*
X1575Y894D01*
X1591Y894D02*
X1596Y894D01*
X1685Y894D02*
X1689Y894D01*
X1700Y894D02*
X1710Y894D01*
X1765Y894D02*
X1769Y894D01*
X1781Y894D02*
X1785Y894D01*
X1820Y894D02*
X1824Y894D01*
X1853Y894D02*
X1858Y894D01*
X1205Y893D02*
X1209Y893D01*
X1342Y893D02*
X1346Y893D01*
X1348Y893D02*
X1360Y893D01*
X1363Y893D02*
X1367Y893D01*
X1428Y893D02*
X1433Y893D01*
X1570Y893D02*
X1575Y893D01*
X1591Y893D02*
X1596Y893D01*
X1685Y893D02*
X1689Y893D01*
X1700Y893D02*
X1710Y893D01*
X1765Y893D02*
X1769Y893D01*
X1781Y893D02*
X1785Y893D01*
X1820Y893D02*
X1824Y893D01*
X1853Y893D02*
X1858Y893D01*
X1205Y892D02*
X1209Y892D01*
X1342Y892D02*
X1346Y892D01*
X1349Y892D02*
X1360Y892D01*
X1363Y892D02*
X1367Y892D01*
X1428Y892D02*
X1433Y892D01*
X1570Y892D02*
X1575Y892D01*
X1591Y892D02*
X1596Y892D01*
X1685Y892D02*
X1689Y892D01*
X1699Y892D02*
X1710Y892D01*
X1765Y892D02*
X1769Y892D01*
X1781Y892D02*
X1785Y892D01*
X1820Y892D02*
X1824Y892D01*
X1854Y892D02*
X1859Y892D01*
X1205Y891D02*
X1210Y891D01*
X1342Y891D02*
X1346Y891D01*
X1350Y891D02*
X1359Y891D01*
X1363Y891D02*
X1367Y891D01*
X1428Y891D02*
X1433Y891D01*
X1570Y891D02*
X1575Y891D01*
X1591Y891D02*
X1596Y891D01*
X1685Y891D02*
X1689Y891D01*
X1699Y891D02*
X1704Y891D01*
X1706Y891D02*
X1710Y891D01*
X1765Y891D02*
X1769Y891D01*
X1781Y891D02*
X1785Y891D01*
X1820Y891D02*
X1824Y891D01*
X1854Y891D02*
X1859Y891D01*
X1117Y890D02*
X1127Y890D01*
X1135Y890D02*
X1137Y890D01*
X1157Y890D02*
X1170Y890D01*
X1193Y890D02*
X1214Y890D01*
X1239Y890D02*
X1249Y890D01*
X1270Y890D02*
X1279Y890D01*
X1287Y890D02*
X1290Y890D01*
X1310Y890D02*
X1322Y890D01*
X1342Y890D02*
X1346Y890D01*
X1350Y890D02*
X1358Y890D01*
X1363Y890D02*
X1367Y890D01*
X1428Y890D02*
X1433Y890D01*
X1462Y890D02*
X1475Y890D01*
X1495Y890D02*
X1498Y890D01*
X1515Y890D02*
X1518Y890D01*
X1543Y890D02*
X1554Y890D01*
X1570Y890D02*
X1575Y890D01*
X1591Y890D02*
X1596Y890D01*
X1615Y890D02*
X1627Y890D01*
X1653Y890D02*
X1665Y890D01*
X1685Y890D02*
X1689Y890D01*
X1699Y890D02*
X1703Y890D01*
X1706Y890D02*
X1710Y890D01*
X1765Y890D02*
X1769Y890D01*
X1781Y890D02*
X1785Y890D01*
X1820Y890D02*
X1824Y890D01*
X1855Y890D02*
X1860Y890D01*
X1116Y889D02*
X1128Y889D01*
X1134Y889D02*
X1138Y889D01*
X1156Y889D02*
X1172Y889D01*
X1192Y889D02*
X1214Y889D01*
X1238Y889D02*
X1250Y889D01*
X1269Y889D02*
X1281Y889D01*
X1287Y889D02*
X1291Y889D01*
X1308Y889D02*
X1324Y889D01*
X1342Y889D02*
X1346Y889D01*
X1351Y889D02*
X1358Y889D01*
X1363Y889D02*
X1367Y889D01*
X1428Y889D02*
X1433Y889D01*
X1461Y889D02*
X1476Y889D01*
X1495Y889D02*
X1499Y889D01*
X1514Y889D02*
X1519Y889D01*
X1543Y889D02*
X1555Y889D01*
X1570Y889D02*
X1575Y889D01*
X1591Y889D02*
X1596Y889D01*
X1613Y889D02*
X1629Y889D01*
X1651Y889D02*
X1667Y889D01*
X1685Y889D02*
X1689Y889D01*
X1698Y889D02*
X1703Y889D01*
X1706Y889D02*
X1710Y889D01*
X1765Y889D02*
X1769Y889D01*
X1781Y889D02*
X1785Y889D01*
X1820Y889D02*
X1824Y889D01*
X1855Y889D02*
X1860Y889D01*
X1115Y888D02*
X1129Y888D01*
X1134Y888D02*
X1138Y888D01*
X1155Y888D02*
X1173Y888D01*
X1192Y888D02*
X1214Y888D01*
X1238Y888D02*
X1250Y888D01*
X1268Y888D02*
X1283Y888D01*
X1286Y888D02*
X1291Y888D01*
X1307Y888D02*
X1325Y888D01*
X1342Y888D02*
X1346Y888D01*
X1352Y888D02*
X1357Y888D01*
X1363Y888D02*
X1367Y888D01*
X1428Y888D02*
X1433Y888D01*
X1459Y888D02*
X1478Y888D01*
X1495Y888D02*
X1500Y888D01*
X1514Y888D02*
X1519Y888D01*
X1543Y888D02*
X1555Y888D01*
X1570Y888D02*
X1575Y888D01*
X1591Y888D02*
X1596Y888D01*
X1612Y888D02*
X1630Y888D01*
X1650Y888D02*
X1668Y888D01*
X1685Y888D02*
X1689Y888D01*
X1698Y888D02*
X1703Y888D01*
X1706Y888D02*
X1710Y888D01*
X1765Y888D02*
X1769Y888D01*
X1781Y888D02*
X1785Y888D01*
X1820Y888D02*
X1824Y888D01*
X1856Y888D02*
X1861Y888D01*
X1114Y887D02*
X1131Y887D01*
X1134Y887D02*
X1138Y887D01*
X1153Y887D02*
X1174Y887D01*
X1192Y887D02*
X1214Y887D01*
X1238Y887D02*
X1250Y887D01*
X1267Y887D02*
X1284Y887D01*
X1286Y887D02*
X1291Y887D01*
X1306Y887D02*
X1326Y887D01*
X1342Y887D02*
X1346Y887D01*
X1352Y887D02*
X1356Y887D01*
X1363Y887D02*
X1367Y887D01*
X1428Y887D02*
X1433Y887D01*
X1458Y887D02*
X1479Y887D01*
X1495Y887D02*
X1501Y887D01*
X1513Y887D02*
X1518Y887D01*
X1543Y887D02*
X1555Y887D01*
X1570Y887D02*
X1575Y887D01*
X1591Y887D02*
X1596Y887D01*
X1611Y887D02*
X1631Y887D01*
X1649Y887D02*
X1669Y887D01*
X1685Y887D02*
X1689Y887D01*
X1697Y887D02*
X1702Y887D01*
X1706Y887D02*
X1710Y887D01*
X1765Y887D02*
X1769Y887D01*
X1781Y887D02*
X1785Y887D01*
X1820Y887D02*
X1824Y887D01*
X1856Y887D02*
X1861Y887D01*
X1114Y886D02*
X1132Y886D01*
X1134Y886D02*
X1138Y886D01*
X1153Y886D02*
X1175Y886D01*
X1193Y886D02*
X1213Y886D01*
X1238Y886D02*
X1249Y886D01*
X1267Y886D02*
X1291Y886D01*
X1305Y886D02*
X1327Y886D01*
X1342Y886D02*
X1346Y886D01*
X1352Y886D02*
X1356Y886D01*
X1363Y886D02*
X1367Y886D01*
X1428Y886D02*
X1433Y886D01*
X1457Y886D02*
X1480Y886D01*
X1496Y886D02*
X1502Y886D01*
X1512Y886D02*
X1518Y886D01*
X1543Y886D02*
X1554Y886D01*
X1570Y886D02*
X1575Y886D01*
X1591Y886D02*
X1596Y886D01*
X1610Y886D02*
X1632Y886D01*
X1648Y886D02*
X1670Y886D01*
X1685Y886D02*
X1689Y886D01*
X1697Y886D02*
X1702Y886D01*
X1706Y886D02*
X1710Y886D01*
X1765Y886D02*
X1769Y886D01*
X1781Y886D02*
X1785Y886D01*
X1820Y886D02*
X1824Y886D01*
X1857Y886D02*
X1861Y886D01*
X1113Y885D02*
X1118Y885D01*
X1126Y885D02*
X1138Y885D01*
X1152Y885D02*
X1158Y885D01*
X1169Y885D02*
X1175Y885D01*
X1205Y885D02*
X1209Y885D01*
X1238Y885D02*
X1242Y885D01*
X1266Y885D02*
X1271Y885D01*
X1279Y885D02*
X1291Y885D01*
X1304Y885D02*
X1311Y885D01*
X1322Y885D02*
X1328Y885D01*
X1342Y885D02*
X1346Y885D01*
X1352Y885D02*
X1356Y885D01*
X1363Y885D02*
X1367Y885D01*
X1428Y885D02*
X1433Y885D01*
X1457Y885D02*
X1463Y885D01*
X1474Y885D02*
X1480Y885D01*
X1496Y885D02*
X1502Y885D01*
X1511Y885D02*
X1517Y885D01*
X1543Y885D02*
X1547Y885D01*
X1570Y885D02*
X1575Y885D01*
X1591Y885D02*
X1596Y885D01*
X1609Y885D02*
X1616Y885D01*
X1626Y885D02*
X1633Y885D01*
X1647Y885D02*
X1654Y885D01*
X1665Y885D02*
X1671Y885D01*
X1685Y885D02*
X1689Y885D01*
X1696Y885D02*
X1701Y885D01*
X1706Y885D02*
X1710Y885D01*
X1765Y885D02*
X1769Y885D01*
X1781Y885D02*
X1785Y885D01*
X1820Y885D02*
X1824Y885D01*
X1857Y885D02*
X1862Y885D01*
X1113Y884D02*
X1118Y884D01*
X1127Y884D02*
X1138Y884D01*
X1151Y884D02*
X1157Y884D01*
X1170Y884D02*
X1176Y884D01*
X1205Y884D02*
X1209Y884D01*
X1238Y884D02*
X1242Y884D01*
X1266Y884D02*
X1271Y884D01*
X1280Y884D02*
X1291Y884D01*
X1304Y884D02*
X1309Y884D01*
X1323Y884D02*
X1328Y884D01*
X1342Y884D02*
X1346Y884D01*
X1353Y884D02*
X1355Y884D01*
X1363Y884D02*
X1367Y884D01*
X1428Y884D02*
X1433Y884D01*
X1456Y884D02*
X1462Y884D01*
X1475Y884D02*
X1481Y884D01*
X1497Y884D02*
X1503Y884D01*
X1510Y884D02*
X1516Y884D01*
X1543Y884D02*
X1547Y884D01*
X1570Y884D02*
X1575Y884D01*
X1591Y884D02*
X1596Y884D01*
X1609Y884D02*
X1614Y884D01*
X1628Y884D02*
X1633Y884D01*
X1647Y884D02*
X1652Y884D01*
X1666Y884D02*
X1671Y884D01*
X1685Y884D02*
X1689Y884D01*
X1696Y884D02*
X1701Y884D01*
X1706Y884D02*
X1710Y884D01*
X1765Y884D02*
X1769Y884D01*
X1781Y884D02*
X1785Y884D01*
X1820Y884D02*
X1824Y884D01*
X1858Y884D02*
X1862Y884D01*
X1113Y883D02*
X1117Y883D01*
X1128Y883D02*
X1138Y883D01*
X1151Y883D02*
X1156Y883D01*
X1171Y883D02*
X1176Y883D01*
X1205Y883D02*
X1209Y883D01*
X1238Y883D02*
X1242Y883D01*
X1266Y883D02*
X1270Y883D01*
X1282Y883D02*
X1291Y883D01*
X1304Y883D02*
X1308Y883D01*
X1324Y883D02*
X1329Y883D01*
X1342Y883D02*
X1346Y883D01*
X1363Y883D02*
X1367Y883D01*
X1428Y883D02*
X1433Y883D01*
X1456Y883D02*
X1461Y883D01*
X1476Y883D02*
X1481Y883D01*
X1498Y883D02*
X1504Y883D01*
X1509Y883D02*
X1515Y883D01*
X1543Y883D02*
X1547Y883D01*
X1570Y883D02*
X1575Y883D01*
X1591Y883D02*
X1596Y883D01*
X1609Y883D02*
X1613Y883D01*
X1629Y883D02*
X1633Y883D01*
X1647Y883D02*
X1651Y883D01*
X1667Y883D02*
X1672Y883D01*
X1685Y883D02*
X1689Y883D01*
X1696Y883D02*
X1700Y883D01*
X1706Y883D02*
X1710Y883D01*
X1765Y883D02*
X1769Y883D01*
X1781Y883D02*
X1785Y883D01*
X1820Y883D02*
X1824Y883D01*
X1858Y883D02*
X1862Y883D01*
X1113Y882D02*
X1117Y882D01*
X1129Y882D02*
X1138Y882D01*
X1151Y882D02*
X1156Y882D01*
X1172Y882D02*
X1176Y882D01*
X1205Y882D02*
X1209Y882D01*
X1238Y882D02*
X1242Y882D01*
X1266Y882D02*
X1270Y882D01*
X1283Y882D02*
X1291Y882D01*
X1304Y882D02*
X1308Y882D01*
X1324Y882D02*
X1329Y882D01*
X1342Y882D02*
X1346Y882D01*
X1363Y882D02*
X1367Y882D01*
X1428Y882D02*
X1433Y882D01*
X1456Y882D02*
X1460Y882D01*
X1477Y882D02*
X1481Y882D01*
X1499Y882D02*
X1505Y882D01*
X1509Y882D02*
X1514Y882D01*
X1543Y882D02*
X1547Y882D01*
X1571Y882D02*
X1577Y882D01*
X1591Y882D02*
X1596Y882D01*
X1608Y882D02*
X1613Y882D01*
X1629Y882D02*
X1634Y882D01*
X1647Y882D02*
X1651Y882D01*
X1667Y882D02*
X1672Y882D01*
X1685Y882D02*
X1689Y882D01*
X1695Y882D02*
X1700Y882D01*
X1706Y882D02*
X1710Y882D01*
X1765Y882D02*
X1769Y882D01*
X1781Y882D02*
X1785Y882D01*
X1820Y882D02*
X1824Y882D01*
X1858Y882D02*
X1862Y882D01*
X1113Y881D02*
X1117Y881D01*
X1130Y881D02*
X1138Y881D01*
X1151Y881D02*
X1155Y881D01*
X1172Y881D02*
X1176Y881D01*
X1205Y881D02*
X1209Y881D01*
X1238Y881D02*
X1242Y881D01*
X1266Y881D02*
X1270Y881D01*
X1285Y881D02*
X1291Y881D01*
X1303Y881D02*
X1308Y881D01*
X1324Y881D02*
X1329Y881D01*
X1342Y881D02*
X1346Y881D01*
X1363Y881D02*
X1367Y881D01*
X1428Y881D02*
X1433Y881D01*
X1456Y881D02*
X1460Y881D01*
X1477Y881D02*
X1481Y881D01*
X1500Y881D02*
X1506Y881D01*
X1508Y881D02*
X1514Y881D01*
X1543Y881D02*
X1547Y881D01*
X1571Y881D02*
X1596Y881D01*
X1608Y881D02*
X1613Y881D01*
X1629Y881D02*
X1634Y881D01*
X1646Y881D02*
X1651Y881D01*
X1667Y881D02*
X1672Y881D01*
X1685Y881D02*
X1689Y881D01*
X1695Y881D02*
X1700Y881D01*
X1706Y881D02*
X1710Y881D01*
X1765Y881D02*
X1769Y881D01*
X1781Y881D02*
X1785Y881D01*
X1820Y881D02*
X1824Y881D01*
X1858Y881D02*
X1862Y881D01*
X1113Y880D02*
X1117Y880D01*
X1132Y880D02*
X1138Y880D01*
X1151Y880D02*
X1155Y880D01*
X1172Y880D02*
X1176Y880D01*
X1205Y880D02*
X1209Y880D01*
X1238Y880D02*
X1242Y880D01*
X1266Y880D02*
X1270Y880D01*
X1286Y880D02*
X1291Y880D01*
X1303Y880D02*
X1308Y880D01*
X1324Y880D02*
X1329Y880D01*
X1342Y880D02*
X1346Y880D01*
X1363Y880D02*
X1367Y880D01*
X1428Y880D02*
X1433Y880D01*
X1456Y880D02*
X1460Y880D01*
X1477Y880D02*
X1481Y880D01*
X1501Y880D02*
X1513Y880D01*
X1543Y880D02*
X1547Y880D01*
X1572Y880D02*
X1596Y880D01*
X1608Y880D02*
X1613Y880D01*
X1629Y880D02*
X1634Y880D01*
X1646Y880D02*
X1651Y880D01*
X1667Y880D02*
X1672Y880D01*
X1685Y880D02*
X1689Y880D01*
X1694Y880D02*
X1699Y880D01*
X1706Y880D02*
X1710Y880D01*
X1765Y880D02*
X1769Y880D01*
X1780Y880D02*
X1785Y880D01*
X1820Y880D02*
X1824Y880D01*
X1858Y880D02*
X1862Y880D01*
X1115Y879D02*
X1115Y879D01*
X1133Y879D02*
X1138Y879D01*
X1151Y879D02*
X1155Y879D01*
X1172Y879D02*
X1176Y879D01*
X1205Y879D02*
X1209Y879D01*
X1238Y879D02*
X1242Y879D01*
X1266Y879D02*
X1270Y879D01*
X1286Y879D02*
X1291Y879D01*
X1303Y879D02*
X1308Y879D01*
X1324Y879D02*
X1329Y879D01*
X1342Y879D02*
X1346Y879D01*
X1363Y879D02*
X1367Y879D01*
X1428Y879D02*
X1433Y879D01*
X1456Y879D02*
X1460Y879D01*
X1477Y879D02*
X1481Y879D01*
X1501Y879D02*
X1512Y879D01*
X1543Y879D02*
X1547Y879D01*
X1573Y879D02*
X1596Y879D01*
X1608Y879D02*
X1613Y879D01*
X1629Y879D02*
X1634Y879D01*
X1646Y879D02*
X1651Y879D01*
X1667Y879D02*
X1672Y879D01*
X1685Y879D02*
X1689Y879D01*
X1694Y879D02*
X1699Y879D01*
X1706Y879D02*
X1710Y879D01*
X1763Y879D02*
X1785Y879D01*
X1800Y879D02*
X1824Y879D01*
X1858Y879D02*
X1862Y879D01*
X1134Y878D02*
X1138Y878D01*
X1151Y878D02*
X1155Y878D01*
X1172Y878D02*
X1176Y878D01*
X1205Y878D02*
X1209Y878D01*
X1238Y878D02*
X1242Y878D01*
X1266Y878D02*
X1270Y878D01*
X1286Y878D02*
X1291Y878D01*
X1303Y878D02*
X1308Y878D01*
X1324Y878D02*
X1329Y878D01*
X1342Y878D02*
X1346Y878D01*
X1363Y878D02*
X1367Y878D01*
X1428Y878D02*
X1433Y878D01*
X1456Y878D02*
X1460Y878D01*
X1477Y878D02*
X1481Y878D01*
X1502Y878D02*
X1511Y878D01*
X1543Y878D02*
X1547Y878D01*
X1574Y878D02*
X1596Y878D01*
X1608Y878D02*
X1613Y878D01*
X1629Y878D02*
X1634Y878D01*
X1646Y878D02*
X1651Y878D01*
X1667Y878D02*
X1672Y878D01*
X1685Y878D02*
X1689Y878D01*
X1693Y878D02*
X1698Y878D01*
X1706Y878D02*
X1710Y878D01*
X1762Y878D02*
X1785Y878D01*
X1799Y878D02*
X1824Y878D01*
X1857Y878D02*
X1862Y878D01*
X1134Y877D02*
X1138Y877D01*
X1151Y877D02*
X1155Y877D01*
X1172Y877D02*
X1176Y877D01*
X1205Y877D02*
X1209Y877D01*
X1238Y877D02*
X1242Y877D01*
X1266Y877D02*
X1270Y877D01*
X1286Y877D02*
X1291Y877D01*
X1303Y877D02*
X1308Y877D01*
X1324Y877D02*
X1329Y877D01*
X1342Y877D02*
X1346Y877D01*
X1363Y877D02*
X1367Y877D01*
X1428Y877D02*
X1433Y877D01*
X1456Y877D02*
X1481Y877D01*
X1503Y877D02*
X1510Y877D01*
X1543Y877D02*
X1547Y877D01*
X1576Y877D02*
X1596Y877D01*
X1608Y877D02*
X1613Y877D01*
X1629Y877D02*
X1634Y877D01*
X1646Y877D02*
X1672Y877D01*
X1685Y877D02*
X1689Y877D01*
X1693Y877D02*
X1698Y877D01*
X1706Y877D02*
X1710Y877D01*
X1762Y877D02*
X1785Y877D01*
X1799Y877D02*
X1824Y877D01*
X1857Y877D02*
X1861Y877D01*
X1134Y876D02*
X1138Y876D01*
X1151Y876D02*
X1155Y876D01*
X1172Y876D02*
X1176Y876D01*
X1205Y876D02*
X1209Y876D01*
X1238Y876D02*
X1242Y876D01*
X1266Y876D02*
X1270Y876D01*
X1286Y876D02*
X1291Y876D01*
X1303Y876D02*
X1308Y876D01*
X1324Y876D02*
X1329Y876D01*
X1342Y876D02*
X1346Y876D01*
X1363Y876D02*
X1367Y876D01*
X1428Y876D02*
X1433Y876D01*
X1456Y876D02*
X1481Y876D01*
X1503Y876D02*
X1510Y876D01*
X1543Y876D02*
X1547Y876D01*
X1591Y876D02*
X1596Y876D01*
X1608Y876D02*
X1613Y876D01*
X1629Y876D02*
X1634Y876D01*
X1646Y876D02*
X1672Y876D01*
X1685Y876D02*
X1689Y876D01*
X1692Y876D02*
X1697Y876D01*
X1706Y876D02*
X1710Y876D01*
X1762Y876D02*
X1785Y876D01*
X1799Y876D02*
X1824Y876D01*
X1856Y876D02*
X1861Y876D01*
X1134Y875D02*
X1138Y875D01*
X1151Y875D02*
X1155Y875D01*
X1172Y875D02*
X1176Y875D01*
X1205Y875D02*
X1209Y875D01*
X1238Y875D02*
X1242Y875D01*
X1266Y875D02*
X1270Y875D01*
X1286Y875D02*
X1291Y875D01*
X1303Y875D02*
X1308Y875D01*
X1324Y875D02*
X1329Y875D01*
X1342Y875D02*
X1346Y875D01*
X1363Y875D02*
X1367Y875D01*
X1428Y875D02*
X1433Y875D01*
X1456Y875D02*
X1481Y875D01*
X1503Y875D02*
X1511Y875D01*
X1543Y875D02*
X1547Y875D01*
X1591Y875D02*
X1596Y875D01*
X1608Y875D02*
X1613Y875D01*
X1629Y875D02*
X1634Y875D01*
X1646Y875D02*
X1672Y875D01*
X1685Y875D02*
X1689Y875D01*
X1692Y875D02*
X1697Y875D01*
X1706Y875D02*
X1710Y875D01*
X1763Y875D02*
X1785Y875D01*
X1799Y875D02*
X1824Y875D01*
X1856Y875D02*
X1861Y875D01*
X1134Y874D02*
X1138Y874D01*
X1151Y874D02*
X1155Y874D01*
X1172Y874D02*
X1176Y874D01*
X1205Y874D02*
X1209Y874D01*
X1238Y874D02*
X1242Y874D01*
X1266Y874D02*
X1270Y874D01*
X1286Y874D02*
X1291Y874D01*
X1303Y874D02*
X1308Y874D01*
X1324Y874D02*
X1329Y874D01*
X1342Y874D02*
X1346Y874D01*
X1363Y874D02*
X1367Y874D01*
X1428Y874D02*
X1433Y874D01*
X1456Y874D02*
X1481Y874D01*
X1502Y874D02*
X1512Y874D01*
X1543Y874D02*
X1547Y874D01*
X1591Y874D02*
X1596Y874D01*
X1608Y874D02*
X1613Y874D01*
X1629Y874D02*
X1634Y874D01*
X1647Y874D02*
X1672Y874D01*
X1685Y874D02*
X1689Y874D01*
X1692Y874D02*
X1696Y874D01*
X1706Y874D02*
X1710Y874D01*
X1765Y874D02*
X1769Y874D01*
X1799Y874D02*
X1803Y874D01*
X1820Y874D02*
X1824Y874D01*
X1855Y874D02*
X1860Y874D01*
X1134Y873D02*
X1138Y873D01*
X1151Y873D02*
X1155Y873D01*
X1172Y873D02*
X1176Y873D01*
X1205Y873D02*
X1209Y873D01*
X1238Y873D02*
X1242Y873D01*
X1266Y873D02*
X1270Y873D01*
X1286Y873D02*
X1291Y873D01*
X1303Y873D02*
X1308Y873D01*
X1324Y873D02*
X1329Y873D01*
X1342Y873D02*
X1346Y873D01*
X1363Y873D02*
X1367Y873D01*
X1428Y873D02*
X1433Y873D01*
X1457Y873D02*
X1481Y873D01*
X1501Y873D02*
X1512Y873D01*
X1543Y873D02*
X1547Y873D01*
X1591Y873D02*
X1596Y873D01*
X1608Y873D02*
X1613Y873D01*
X1629Y873D02*
X1634Y873D01*
X1647Y873D02*
X1672Y873D01*
X1685Y873D02*
X1689Y873D01*
X1691Y873D02*
X1696Y873D01*
X1706Y873D02*
X1710Y873D01*
X1765Y873D02*
X1769Y873D01*
X1799Y873D02*
X1803Y873D01*
X1820Y873D02*
X1824Y873D01*
X1855Y873D02*
X1860Y873D01*
X1134Y872D02*
X1138Y872D01*
X1151Y872D02*
X1155Y872D01*
X1172Y872D02*
X1176Y872D01*
X1205Y872D02*
X1209Y872D01*
X1238Y872D02*
X1242Y872D01*
X1266Y872D02*
X1270Y872D01*
X1286Y872D02*
X1291Y872D01*
X1303Y872D02*
X1308Y872D01*
X1324Y872D02*
X1329Y872D01*
X1342Y872D02*
X1346Y872D01*
X1363Y872D02*
X1367Y872D01*
X1428Y872D02*
X1433Y872D01*
X1476Y872D02*
X1481Y872D01*
X1500Y872D02*
X1513Y872D01*
X1543Y872D02*
X1547Y872D01*
X1591Y872D02*
X1596Y872D01*
X1608Y872D02*
X1613Y872D01*
X1629Y872D02*
X1634Y872D01*
X1667Y872D02*
X1672Y872D01*
X1685Y872D02*
X1689Y872D01*
X1691Y872D02*
X1696Y872D01*
X1706Y872D02*
X1710Y872D01*
X1765Y872D02*
X1769Y872D01*
X1799Y872D02*
X1803Y872D01*
X1820Y872D02*
X1824Y872D01*
X1854Y872D02*
X1859Y872D01*
X1134Y871D02*
X1138Y871D01*
X1151Y871D02*
X1155Y871D01*
X1172Y871D02*
X1176Y871D01*
X1205Y871D02*
X1209Y871D01*
X1238Y871D02*
X1242Y871D01*
X1266Y871D02*
X1270Y871D01*
X1286Y871D02*
X1291Y871D01*
X1303Y871D02*
X1308Y871D01*
X1324Y871D02*
X1329Y871D01*
X1342Y871D02*
X1346Y871D01*
X1363Y871D02*
X1367Y871D01*
X1428Y871D02*
X1433Y871D01*
X1477Y871D02*
X1481Y871D01*
X1499Y871D02*
X1505Y871D01*
X1508Y871D02*
X1514Y871D01*
X1543Y871D02*
X1547Y871D01*
X1591Y871D02*
X1596Y871D01*
X1608Y871D02*
X1613Y871D01*
X1629Y871D02*
X1634Y871D01*
X1667Y871D02*
X1672Y871D01*
X1685Y871D02*
X1695Y871D01*
X1706Y871D02*
X1710Y871D01*
X1765Y871D02*
X1769Y871D01*
X1799Y871D02*
X1803Y871D01*
X1820Y871D02*
X1824Y871D01*
X1854Y871D02*
X1859Y871D01*
X1134Y870D02*
X1138Y870D01*
X1151Y870D02*
X1155Y870D01*
X1172Y870D02*
X1176Y870D01*
X1190Y870D02*
X1192Y870D01*
X1205Y870D02*
X1209Y870D01*
X1238Y870D02*
X1242Y870D01*
X1266Y870D02*
X1270Y870D01*
X1286Y870D02*
X1291Y870D01*
X1303Y870D02*
X1308Y870D01*
X1324Y870D02*
X1329Y870D01*
X1342Y870D02*
X1346Y870D01*
X1363Y870D02*
X1367Y870D01*
X1428Y870D02*
X1433Y870D01*
X1477Y870D02*
X1481Y870D01*
X1499Y870D02*
X1505Y870D01*
X1509Y870D02*
X1515Y870D01*
X1543Y870D02*
X1547Y870D01*
X1591Y870D02*
X1596Y870D01*
X1608Y870D02*
X1613Y870D01*
X1629Y870D02*
X1634Y870D01*
X1667Y870D02*
X1672Y870D01*
X1685Y870D02*
X1695Y870D01*
X1706Y870D02*
X1710Y870D01*
X1765Y870D02*
X1769Y870D01*
X1799Y870D02*
X1803Y870D01*
X1820Y870D02*
X1824Y870D01*
X1853Y870D02*
X1858Y870D01*
X1134Y869D02*
X1138Y869D01*
X1151Y869D02*
X1156Y869D01*
X1172Y869D02*
X1176Y869D01*
X1189Y869D02*
X1193Y869D01*
X1205Y869D02*
X1209Y869D01*
X1238Y869D02*
X1242Y869D01*
X1266Y869D02*
X1270Y869D01*
X1286Y869D02*
X1291Y869D01*
X1304Y869D02*
X1308Y869D01*
X1324Y869D02*
X1329Y869D01*
X1342Y869D02*
X1346Y869D01*
X1363Y869D02*
X1367Y869D01*
X1428Y869D02*
X1433Y869D01*
X1476Y869D02*
X1481Y869D01*
X1498Y869D02*
X1504Y869D01*
X1510Y869D02*
X1516Y869D01*
X1543Y869D02*
X1547Y869D01*
X1591Y869D02*
X1596Y869D01*
X1608Y869D02*
X1613Y869D01*
X1629Y869D02*
X1634Y869D01*
X1667Y869D02*
X1672Y869D01*
X1685Y869D02*
X1694Y869D01*
X1706Y869D02*
X1710Y869D01*
X1765Y869D02*
X1769Y869D01*
X1799Y869D02*
X1803Y869D01*
X1820Y869D02*
X1824Y869D01*
X1853Y869D02*
X1858Y869D01*
X1134Y868D02*
X1138Y868D01*
X1151Y868D02*
X1157Y868D01*
X1171Y868D02*
X1176Y868D01*
X1189Y868D02*
X1194Y868D01*
X1205Y868D02*
X1209Y868D01*
X1238Y868D02*
X1242Y868D01*
X1266Y868D02*
X1270Y868D01*
X1286Y868D02*
X1291Y868D01*
X1304Y868D02*
X1309Y868D01*
X1323Y868D02*
X1328Y868D01*
X1342Y868D02*
X1346Y868D01*
X1363Y868D02*
X1367Y868D01*
X1428Y868D02*
X1433Y868D01*
X1476Y868D02*
X1481Y868D01*
X1497Y868D02*
X1503Y868D01*
X1510Y868D02*
X1517Y868D01*
X1543Y868D02*
X1547Y868D01*
X1591Y868D02*
X1596Y868D01*
X1609Y868D02*
X1614Y868D01*
X1628Y868D02*
X1633Y868D01*
X1666Y868D02*
X1671Y868D01*
X1685Y868D02*
X1694Y868D01*
X1706Y868D02*
X1710Y868D01*
X1765Y868D02*
X1769Y868D01*
X1799Y868D02*
X1803Y868D01*
X1820Y868D02*
X1824Y868D01*
X1852Y868D02*
X1857Y868D01*
X1134Y867D02*
X1138Y867D01*
X1152Y867D02*
X1158Y867D01*
X1169Y867D02*
X1176Y867D01*
X1189Y867D02*
X1194Y867D01*
X1204Y867D02*
X1209Y867D01*
X1238Y867D02*
X1242Y867D01*
X1265Y867D02*
X1270Y867D01*
X1286Y867D02*
X1291Y867D01*
X1304Y867D02*
X1310Y867D01*
X1322Y867D02*
X1328Y867D01*
X1342Y867D02*
X1346Y867D01*
X1363Y867D02*
X1367Y867D01*
X1428Y867D02*
X1433Y867D01*
X1474Y867D02*
X1481Y867D01*
X1496Y867D02*
X1502Y867D01*
X1511Y867D02*
X1517Y867D01*
X1543Y867D02*
X1547Y867D01*
X1591Y867D02*
X1596Y867D01*
X1609Y867D02*
X1615Y867D01*
X1627Y867D02*
X1633Y867D01*
X1665Y867D02*
X1671Y867D01*
X1685Y867D02*
X1693Y867D01*
X1706Y867D02*
X1710Y867D01*
X1765Y867D02*
X1769Y867D01*
X1799Y867D02*
X1803Y867D01*
X1820Y867D02*
X1824Y867D01*
X1851Y867D02*
X1857Y867D01*
X1134Y866D02*
X1138Y866D01*
X1152Y866D02*
X1175Y866D01*
X1190Y866D02*
X1209Y866D01*
X1232Y866D02*
X1248Y866D01*
X1265Y866D02*
X1270Y866D01*
X1286Y866D02*
X1291Y866D01*
X1305Y866D02*
X1327Y866D01*
X1342Y866D02*
X1346Y866D01*
X1363Y866D02*
X1367Y866D01*
X1422Y866D02*
X1439Y866D01*
X1458Y866D02*
X1480Y866D01*
X1495Y866D02*
X1501Y866D01*
X1512Y866D02*
X1518Y866D01*
X1537Y866D02*
X1553Y866D01*
X1591Y866D02*
X1596Y866D01*
X1610Y866D02*
X1632Y866D01*
X1648Y866D02*
X1671Y866D01*
X1685Y866D02*
X1693Y866D01*
X1706Y866D02*
X1710Y866D01*
X1765Y866D02*
X1769Y866D01*
X1799Y866D02*
X1824Y866D01*
X1839Y866D02*
X1856Y866D01*
X1134Y865D02*
X1138Y865D01*
X1153Y865D02*
X1174Y865D01*
X1190Y865D02*
X1208Y865D01*
X1230Y865D02*
X1249Y865D01*
X1265Y865D02*
X1270Y865D01*
X1286Y865D02*
X1291Y865D01*
X1306Y865D02*
X1327Y865D01*
X1342Y865D02*
X1346Y865D01*
X1363Y865D02*
X1367Y865D01*
X1421Y865D02*
X1440Y865D01*
X1456Y865D02*
X1479Y865D01*
X1494Y865D02*
X1500Y865D01*
X1513Y865D02*
X1519Y865D01*
X1535Y865D02*
X1554Y865D01*
X1591Y865D02*
X1596Y865D01*
X1611Y865D02*
X1632Y865D01*
X1647Y865D02*
X1670Y865D01*
X1685Y865D02*
X1692Y865D01*
X1706Y865D02*
X1710Y865D01*
X1765Y865D02*
X1769Y865D01*
X1799Y865D02*
X1824Y865D01*
X1838Y865D02*
X1856Y865D01*
X1134Y864D02*
X1138Y864D01*
X1154Y864D02*
X1173Y864D01*
X1191Y864D02*
X1208Y864D01*
X1230Y864D02*
X1250Y864D01*
X1265Y864D02*
X1270Y864D01*
X1286Y864D02*
X1291Y864D01*
X1307Y864D02*
X1326Y864D01*
X1342Y864D02*
X1346Y864D01*
X1363Y864D02*
X1367Y864D01*
X1421Y864D02*
X1440Y864D01*
X1456Y864D02*
X1478Y864D01*
X1494Y864D02*
X1500Y864D01*
X1514Y864D02*
X1519Y864D01*
X1535Y864D02*
X1555Y864D01*
X1591Y864D02*
X1596Y864D01*
X1612Y864D02*
X1631Y864D01*
X1647Y864D02*
X1669Y864D01*
X1685Y864D02*
X1692Y864D01*
X1706Y864D02*
X1710Y864D01*
X1765Y864D02*
X1769Y864D01*
X1799Y864D02*
X1824Y864D01*
X1837Y864D02*
X1855Y864D01*
X1134Y863D02*
X1138Y863D01*
X1155Y863D02*
X1172Y863D01*
X1192Y863D02*
X1207Y863D01*
X1230Y863D02*
X1250Y863D01*
X1265Y863D02*
X1270Y863D01*
X1286Y863D02*
X1291Y863D01*
X1308Y863D02*
X1324Y863D01*
X1342Y863D02*
X1346Y863D01*
X1363Y863D02*
X1367Y863D01*
X1421Y863D02*
X1440Y863D01*
X1456Y863D02*
X1477Y863D01*
X1494Y863D02*
X1499Y863D01*
X1515Y863D02*
X1519Y863D01*
X1535Y863D02*
X1555Y863D01*
X1591Y863D02*
X1595Y863D01*
X1613Y863D02*
X1629Y863D01*
X1647Y863D02*
X1668Y863D01*
X1685Y863D02*
X1692Y863D01*
X1706Y863D02*
X1710Y863D01*
X1765Y863D02*
X1769Y863D01*
X1799Y863D02*
X1824Y863D01*
X1837Y863D02*
X1854Y863D01*
X1134Y862D02*
X1138Y862D01*
X1157Y862D02*
X1171Y862D01*
X1193Y862D02*
X1205Y862D01*
X1230Y862D02*
X1249Y862D01*
X1266Y862D02*
X1269Y862D01*
X1287Y862D02*
X1290Y862D01*
X1309Y862D02*
X1323Y862D01*
X1342Y862D02*
X1345Y862D01*
X1363Y862D02*
X1366Y862D01*
X1421Y862D02*
X1440Y862D01*
X1456Y862D02*
X1476Y862D01*
X1495Y862D02*
X1498Y862D01*
X1515Y862D02*
X1519Y862D01*
X1535Y862D02*
X1554Y862D01*
X1592Y862D02*
X1595Y862D01*
X1614Y862D02*
X1628Y862D01*
X1647Y862D02*
X1666Y862D01*
X1685Y862D02*
X1691Y862D01*
X1706Y862D02*
X1709Y862D01*
X1765Y862D02*
X1769Y862D01*
X1799Y862D02*
X1824Y862D01*
X1838Y862D02*
X1853Y862D01*
X1136Y861D02*
X1136Y861D01*
X1159Y861D02*
X1168Y861D01*
X1195Y861D02*
X1203Y861D01*
X1232Y861D02*
X1248Y861D01*
X1267Y861D02*
X1268Y861D01*
X1288Y861D02*
X1289Y861D01*
X1312Y861D02*
X1320Y861D01*
X1343Y861D02*
X1344Y861D01*
X1364Y861D02*
X1365Y861D01*
X1422Y861D02*
X1439Y861D01*
X1458Y861D02*
X1473Y861D01*
X1496Y861D02*
X1497Y861D01*
X1517Y861D02*
X1518Y861D01*
X1537Y861D02*
X1553Y861D01*
X1593Y861D02*
X1594Y861D01*
X1617Y861D02*
X1625Y861D01*
X1648Y861D02*
X1664Y861D01*
X1685Y861D02*
X1691Y861D01*
X1707Y861D02*
X1708Y861D01*
X1767Y861D02*
X1767Y861D01*
X1801Y861D02*
X1822Y861D01*
X1839Y861D02*
X1850Y861D01*
X561Y718D02*
X569Y718D01*
X1281Y718D02*
X1289Y718D01*
X559Y717D02*
X571Y717D01*
X1279Y717D02*
X1291Y717D01*
X559Y716D02*
X571Y716D01*
X1279Y716D02*
X1291Y716D01*
X558Y715D02*
X572Y715D01*
X1278Y715D02*
X1292Y715D01*
X558Y714D02*
X572Y714D01*
X993Y714D02*
X1011Y714D01*
X1058Y714D02*
X1091Y714D01*
X1192Y714D02*
X1209Y714D01*
X1278Y714D02*
X1292Y714D01*
X1445Y714D02*
X1448Y714D01*
X558Y713D02*
X572Y713D01*
X992Y713D02*
X1012Y713D01*
X1055Y713D02*
X1091Y713D01*
X1190Y713D02*
X1212Y713D01*
X1278Y713D02*
X1292Y713D01*
X1443Y713D02*
X1449Y713D01*
X558Y712D02*
X572Y712D01*
X991Y712D02*
X1013Y712D01*
X1053Y712D02*
X1091Y712D01*
X1189Y712D02*
X1214Y712D01*
X1278Y712D02*
X1292Y712D01*
X1443Y712D02*
X1450Y712D01*
X558Y711D02*
X572Y711D01*
X990Y711D02*
X1014Y711D01*
X1051Y711D02*
X1091Y711D01*
X1189Y711D02*
X1215Y711D01*
X1278Y711D02*
X1292Y711D01*
X1442Y711D02*
X1450Y711D01*
X428Y710D02*
X429Y710D01*
X558Y710D02*
X572Y710D01*
X990Y710D02*
X1014Y710D01*
X1050Y710D02*
X1091Y710D01*
X1189Y710D02*
X1216Y710D01*
X1278Y710D02*
X1292Y710D01*
X1442Y710D02*
X1451Y710D01*
X426Y709D02*
X431Y709D01*
X558Y709D02*
X572Y709D01*
X990Y709D02*
X1014Y709D01*
X1049Y709D02*
X1091Y709D01*
X1189Y709D02*
X1217Y709D01*
X1278Y709D02*
X1292Y709D01*
X1442Y709D02*
X1451Y709D01*
X425Y708D02*
X432Y708D01*
X558Y708D02*
X572Y708D01*
X990Y708D02*
X1014Y708D01*
X1048Y708D02*
X1091Y708D01*
X1189Y708D02*
X1218Y708D01*
X1278Y708D02*
X1292Y708D01*
X1442Y708D02*
X1451Y708D01*
X424Y707D02*
X432Y707D01*
X559Y707D02*
X571Y707D01*
X990Y707D02*
X1013Y707D01*
X1047Y707D02*
X1091Y707D01*
X1189Y707D02*
X1219Y707D01*
X1279Y707D02*
X1291Y707D01*
X1442Y707D02*
X1451Y707D01*
X424Y706D02*
X433Y706D01*
X559Y706D02*
X571Y706D01*
X990Y706D02*
X1012Y706D01*
X1046Y706D02*
X1091Y706D01*
X1190Y706D02*
X1220Y706D01*
X1279Y706D02*
X1291Y706D01*
X1442Y706D02*
X1451Y706D01*
X424Y705D02*
X433Y705D01*
X561Y705D02*
X569Y705D01*
X990Y705D02*
X1011Y705D01*
X1045Y705D02*
X1091Y705D01*
X1191Y705D02*
X1220Y705D01*
X1281Y705D02*
X1289Y705D01*
X1442Y705D02*
X1451Y705D01*
X424Y704D02*
X433Y704D01*
X990Y704D02*
X999Y704D01*
X1045Y704D02*
X1059Y704D01*
X1082Y704D02*
X1091Y704D01*
X1208Y704D02*
X1221Y704D01*
X1442Y704D02*
X1451Y704D01*
X424Y703D02*
X433Y703D01*
X990Y703D02*
X999Y703D01*
X1044Y703D02*
X1056Y703D01*
X1082Y703D02*
X1091Y703D01*
X1210Y703D02*
X1221Y703D01*
X1442Y703D02*
X1451Y703D01*
X424Y702D02*
X433Y702D01*
X990Y702D02*
X999Y702D01*
X1044Y702D02*
X1055Y702D01*
X1082Y702D02*
X1091Y702D01*
X1211Y702D02*
X1222Y702D01*
X1442Y702D02*
X1451Y702D01*
X424Y701D02*
X433Y701D01*
X990Y701D02*
X999Y701D01*
X1043Y701D02*
X1054Y701D01*
X1082Y701D02*
X1091Y701D01*
X1212Y701D02*
X1222Y701D01*
X1442Y701D02*
X1451Y701D01*
X424Y700D02*
X433Y700D01*
X990Y700D02*
X999Y700D01*
X1043Y700D02*
X1053Y700D01*
X1082Y700D02*
X1091Y700D01*
X1213Y700D02*
X1222Y700D01*
X1442Y700D02*
X1451Y700D01*
X424Y699D02*
X433Y699D01*
X990Y699D02*
X999Y699D01*
X1043Y699D02*
X1052Y699D01*
X1082Y699D02*
X1091Y699D01*
X1213Y699D02*
X1222Y699D01*
X1442Y699D02*
X1451Y699D01*
X424Y698D02*
X433Y698D01*
X990Y698D02*
X999Y698D01*
X1042Y698D02*
X1052Y698D01*
X1082Y698D02*
X1091Y698D01*
X1213Y698D02*
X1222Y698D01*
X1442Y698D02*
X1451Y698D01*
X424Y697D02*
X433Y697D01*
X990Y697D02*
X999Y697D01*
X1042Y697D02*
X1051Y697D01*
X1082Y697D02*
X1091Y697D01*
X1213Y697D02*
X1222Y697D01*
X1442Y697D02*
X1451Y697D01*
X424Y696D02*
X433Y696D01*
X990Y696D02*
X999Y696D01*
X1042Y696D02*
X1051Y696D01*
X1082Y696D02*
X1091Y696D01*
X1213Y696D02*
X1222Y696D01*
X1442Y696D02*
X1451Y696D01*
X424Y695D02*
X433Y695D01*
X990Y695D02*
X999Y695D01*
X1042Y695D02*
X1051Y695D01*
X1082Y695D02*
X1091Y695D01*
X1213Y695D02*
X1222Y695D01*
X1442Y695D02*
X1451Y695D01*
X424Y694D02*
X433Y694D01*
X990Y694D02*
X999Y694D01*
X1042Y694D02*
X1051Y694D01*
X1082Y694D02*
X1091Y694D01*
X1213Y694D02*
X1222Y694D01*
X1442Y694D02*
X1451Y694D01*
X403Y693D02*
X439Y693D01*
X478Y693D02*
X503Y693D01*
X562Y693D02*
X578Y693D01*
X614Y693D02*
X615Y693D01*
X686Y693D02*
X687Y693D01*
X704Y693D02*
X715Y693D01*
X784Y693D02*
X787Y693D01*
X798Y693D02*
X800Y693D01*
X842Y693D02*
X859Y693D01*
X914Y693D02*
X931Y693D01*
X990Y693D02*
X999Y693D01*
X1042Y693D02*
X1051Y693D01*
X1082Y693D02*
X1091Y693D01*
X1202Y693D02*
X1228Y693D01*
X1282Y693D02*
X1298Y693D01*
X1346Y693D02*
X1363Y693D01*
X1442Y693D02*
X1451Y693D01*
X401Y692D02*
X441Y692D01*
X474Y692D02*
X506Y692D01*
X560Y692D02*
X580Y692D01*
X612Y692D02*
X617Y692D01*
X684Y692D02*
X689Y692D01*
X700Y692D02*
X718Y692D01*
X762Y692D02*
X770Y692D01*
X781Y692D02*
X790Y692D01*
X796Y692D02*
X802Y692D01*
X839Y692D02*
X862Y692D01*
X911Y692D02*
X934Y692D01*
X990Y692D02*
X999Y692D01*
X1042Y692D02*
X1051Y692D01*
X1082Y692D02*
X1091Y692D01*
X1200Y692D02*
X1230Y692D01*
X1280Y692D02*
X1300Y692D01*
X1343Y692D02*
X1366Y692D01*
X1442Y692D02*
X1451Y692D01*
X400Y691D02*
X442Y691D01*
X473Y691D02*
X508Y691D01*
X559Y691D02*
X581Y691D01*
X611Y691D02*
X618Y691D01*
X658Y691D02*
X658Y691D01*
X683Y691D02*
X690Y691D01*
X698Y691D02*
X719Y691D01*
X760Y691D02*
X772Y691D01*
X779Y691D02*
X792Y691D01*
X795Y691D02*
X803Y691D01*
X837Y691D02*
X864Y691D01*
X909Y691D02*
X936Y691D01*
X990Y691D02*
X999Y691D01*
X1042Y691D02*
X1051Y691D01*
X1082Y691D02*
X1091Y691D01*
X1199Y691D02*
X1231Y691D01*
X1279Y691D02*
X1301Y691D01*
X1341Y691D02*
X1368Y691D01*
X1442Y691D02*
X1451Y691D01*
X399Y690D02*
X442Y690D01*
X471Y690D02*
X509Y690D01*
X558Y690D02*
X581Y690D01*
X610Y690D02*
X619Y690D01*
X657Y690D02*
X658Y690D01*
X682Y690D02*
X691Y690D01*
X696Y690D02*
X719Y690D01*
X759Y690D02*
X774Y690D01*
X778Y690D02*
X793Y690D01*
X795Y690D02*
X803Y690D01*
X835Y690D02*
X865Y690D01*
X907Y690D02*
X937Y690D01*
X990Y690D02*
X999Y690D01*
X1042Y690D02*
X1051Y690D01*
X1082Y690D02*
X1091Y690D01*
X1199Y690D02*
X1232Y690D01*
X1278Y690D02*
X1301Y690D01*
X1339Y690D02*
X1369Y690D01*
X1442Y690D02*
X1451Y690D01*
X399Y689D02*
X443Y689D01*
X470Y689D02*
X510Y689D01*
X558Y689D02*
X582Y689D01*
X610Y689D02*
X619Y689D01*
X656Y689D02*
X659Y689D01*
X682Y689D02*
X691Y689D01*
X695Y689D02*
X720Y689D01*
X758Y689D02*
X775Y689D01*
X777Y689D02*
X803Y689D01*
X834Y689D02*
X867Y689D01*
X906Y689D02*
X939Y689D01*
X990Y689D02*
X999Y689D01*
X1042Y689D02*
X1051Y689D01*
X1082Y689D02*
X1091Y689D01*
X1199Y689D02*
X1232Y689D01*
X1278Y689D02*
X1302Y689D01*
X1338Y689D02*
X1371Y689D01*
X1442Y689D02*
X1451Y689D01*
X399Y688D02*
X443Y688D01*
X469Y688D02*
X511Y688D01*
X558Y688D02*
X582Y688D01*
X610Y688D02*
X619Y688D01*
X655Y688D02*
X659Y688D01*
X682Y688D02*
X691Y688D01*
X694Y688D02*
X721Y688D01*
X757Y688D02*
X804Y688D01*
X833Y688D02*
X868Y688D01*
X905Y688D02*
X940Y688D01*
X990Y688D02*
X999Y688D01*
X1042Y688D02*
X1051Y688D01*
X1082Y688D02*
X1091Y688D01*
X1199Y688D02*
X1232Y688D01*
X1278Y688D02*
X1302Y688D01*
X1337Y688D02*
X1372Y688D01*
X1442Y688D02*
X1451Y688D01*
X399Y687D02*
X443Y687D01*
X468Y687D02*
X512Y687D01*
X558Y687D02*
X582Y687D01*
X610Y687D02*
X619Y687D01*
X654Y687D02*
X659Y687D01*
X682Y687D02*
X691Y687D01*
X693Y687D02*
X723Y687D01*
X756Y687D02*
X804Y687D01*
X832Y687D02*
X869Y687D01*
X904Y687D02*
X941Y687D01*
X990Y687D02*
X999Y687D01*
X1042Y687D02*
X1052Y687D01*
X1082Y687D02*
X1091Y687D01*
X1199Y687D02*
X1232Y687D01*
X1278Y687D02*
X1302Y687D01*
X1336Y687D02*
X1373Y687D01*
X1442Y687D02*
X1451Y687D01*
X400Y686D02*
X442Y686D01*
X468Y686D02*
X512Y686D01*
X558Y686D02*
X581Y686D01*
X610Y686D02*
X619Y686D01*
X653Y686D02*
X659Y686D01*
X682Y686D02*
X724Y686D01*
X756Y686D02*
X804Y686D01*
X831Y686D02*
X870Y686D01*
X903Y686D02*
X942Y686D01*
X990Y686D02*
X999Y686D01*
X1042Y686D02*
X1052Y686D01*
X1082Y686D02*
X1091Y686D01*
X1199Y686D02*
X1232Y686D01*
X1278Y686D02*
X1301Y686D01*
X1335Y686D02*
X1374Y686D01*
X1442Y686D02*
X1451Y686D01*
X400Y685D02*
X442Y685D01*
X467Y685D02*
X513Y685D01*
X558Y685D02*
X581Y685D01*
X610Y685D02*
X619Y685D01*
X651Y685D02*
X659Y685D01*
X682Y685D02*
X726Y685D01*
X755Y685D02*
X804Y685D01*
X830Y685D02*
X871Y685D01*
X902Y685D02*
X943Y685D01*
X990Y685D02*
X999Y685D01*
X1043Y685D02*
X1053Y685D01*
X1082Y685D02*
X1091Y685D01*
X1200Y685D02*
X1231Y685D01*
X1278Y685D02*
X1301Y685D01*
X1334Y685D02*
X1375Y685D01*
X1442Y685D02*
X1451Y685D01*
X401Y684D02*
X440Y684D01*
X467Y684D02*
X513Y684D01*
X558Y684D02*
X579Y684D01*
X610Y684D02*
X619Y684D01*
X650Y684D02*
X659Y684D01*
X682Y684D02*
X728Y684D01*
X755Y684D02*
X804Y684D01*
X829Y684D02*
X872Y684D01*
X901Y684D02*
X944Y684D01*
X990Y684D02*
X999Y684D01*
X1043Y684D02*
X1054Y684D01*
X1082Y684D02*
X1091Y684D01*
X1201Y684D02*
X1230Y684D01*
X1278Y684D02*
X1299Y684D01*
X1333Y684D02*
X1376Y684D01*
X1442Y684D02*
X1451Y684D01*
X423Y683D02*
X433Y683D01*
X467Y683D02*
X479Y683D01*
X502Y683D02*
X513Y683D01*
X558Y683D02*
X567Y683D01*
X610Y683D02*
X619Y683D01*
X650Y683D02*
X659Y683D01*
X682Y683D02*
X704Y683D01*
X714Y683D02*
X729Y683D01*
X755Y683D02*
X765Y683D01*
X767Y683D02*
X784Y683D01*
X787Y683D02*
X804Y683D01*
X828Y683D02*
X843Y683D01*
X858Y683D02*
X872Y683D01*
X900Y683D02*
X915Y683D01*
X930Y683D02*
X944Y683D01*
X990Y683D02*
X999Y683D01*
X1043Y683D02*
X1055Y683D01*
X1082Y683D02*
X1091Y683D01*
X1213Y683D02*
X1223Y683D01*
X1278Y683D02*
X1287Y683D01*
X1332Y683D02*
X1347Y683D01*
X1362Y683D02*
X1376Y683D01*
X1442Y683D02*
X1451Y683D01*
X424Y682D02*
X433Y682D01*
X467Y682D02*
X477Y682D01*
X504Y682D02*
X513Y682D01*
X558Y682D02*
X567Y682D01*
X610Y682D02*
X619Y682D01*
X650Y682D02*
X659Y682D01*
X682Y682D02*
X702Y682D01*
X716Y682D02*
X729Y682D01*
X755Y682D02*
X764Y682D01*
X768Y682D02*
X783Y682D01*
X788Y682D02*
X804Y682D01*
X828Y682D02*
X840Y682D01*
X860Y682D02*
X873Y682D01*
X900Y682D02*
X912Y682D01*
X932Y682D02*
X945Y682D01*
X990Y682D02*
X999Y682D01*
X1044Y682D02*
X1056Y682D01*
X1082Y682D02*
X1091Y682D01*
X1213Y682D02*
X1222Y682D01*
X1278Y682D02*
X1287Y682D01*
X1332Y682D02*
X1344Y682D01*
X1364Y682D02*
X1377Y682D01*
X1442Y682D02*
X1451Y682D01*
X424Y681D02*
X433Y681D01*
X468Y681D02*
X475Y681D01*
X504Y681D02*
X514Y681D01*
X558Y681D02*
X567Y681D01*
X610Y681D02*
X619Y681D01*
X650Y681D02*
X659Y681D01*
X682Y681D02*
X700Y681D01*
X718Y681D02*
X730Y681D01*
X755Y681D02*
X764Y681D01*
X770Y681D02*
X783Y681D01*
X789Y681D02*
X804Y681D01*
X827Y681D02*
X839Y681D01*
X862Y681D02*
X873Y681D01*
X899Y681D02*
X911Y681D01*
X934Y681D02*
X945Y681D01*
X990Y681D02*
X999Y681D01*
X1044Y681D02*
X1058Y681D01*
X1082Y681D02*
X1091Y681D01*
X1213Y681D02*
X1222Y681D01*
X1278Y681D02*
X1287Y681D01*
X1331Y681D02*
X1343Y681D01*
X1366Y681D02*
X1377Y681D01*
X1442Y681D02*
X1451Y681D01*
X424Y680D02*
X433Y680D01*
X469Y680D02*
X474Y680D01*
X505Y680D02*
X514Y680D01*
X558Y680D02*
X567Y680D01*
X610Y680D02*
X619Y680D01*
X649Y680D02*
X659Y680D01*
X682Y680D02*
X699Y680D01*
X719Y680D02*
X730Y680D01*
X755Y680D02*
X764Y680D01*
X771Y680D02*
X783Y680D01*
X791Y680D02*
X804Y680D01*
X827Y680D02*
X838Y680D01*
X863Y680D02*
X874Y680D01*
X899Y680D02*
X910Y680D01*
X935Y680D02*
X946Y680D01*
X990Y680D02*
X999Y680D01*
X1045Y680D02*
X1091Y680D01*
X1213Y680D02*
X1222Y680D01*
X1278Y680D02*
X1287Y680D01*
X1331Y680D02*
X1342Y680D01*
X1367Y680D02*
X1378Y680D01*
X1442Y680D02*
X1451Y680D01*
X424Y679D02*
X433Y679D01*
X471Y679D02*
X472Y679D01*
X504Y679D02*
X513Y679D01*
X558Y679D02*
X567Y679D01*
X610Y679D02*
X619Y679D01*
X649Y679D02*
X658Y679D01*
X682Y679D02*
X698Y679D01*
X720Y679D02*
X730Y679D01*
X755Y679D02*
X764Y679D01*
X772Y679D02*
X783Y679D01*
X792Y679D02*
X804Y679D01*
X826Y679D02*
X837Y679D01*
X864Y679D02*
X874Y679D01*
X898Y679D02*
X909Y679D01*
X936Y679D02*
X946Y679D01*
X990Y679D02*
X999Y679D01*
X1046Y679D02*
X1091Y679D01*
X1213Y679D02*
X1222Y679D01*
X1278Y679D02*
X1287Y679D01*
X1330Y679D02*
X1341Y679D01*
X1368Y679D02*
X1378Y679D01*
X1442Y679D02*
X1451Y679D01*
X424Y678D02*
X433Y678D01*
X503Y678D02*
X513Y678D01*
X558Y678D02*
X567Y678D01*
X610Y678D02*
X619Y678D01*
X649Y678D02*
X658Y678D01*
X682Y678D02*
X697Y678D01*
X721Y678D02*
X731Y678D01*
X755Y678D02*
X764Y678D01*
X773Y678D02*
X783Y678D01*
X793Y678D02*
X804Y678D01*
X826Y678D02*
X836Y678D01*
X865Y678D02*
X874Y678D01*
X898Y678D02*
X908Y678D01*
X937Y678D02*
X946Y678D01*
X990Y678D02*
X999Y678D01*
X1047Y678D02*
X1091Y678D01*
X1213Y678D02*
X1222Y678D01*
X1278Y678D02*
X1287Y678D01*
X1330Y678D02*
X1340Y678D01*
X1369Y678D02*
X1378Y678D01*
X1442Y678D02*
X1451Y678D01*
X424Y677D02*
X433Y677D01*
X501Y677D02*
X513Y677D01*
X558Y677D02*
X567Y677D01*
X610Y677D02*
X619Y677D01*
X649Y677D02*
X658Y677D01*
X682Y677D02*
X696Y677D01*
X721Y677D02*
X731Y677D01*
X755Y677D02*
X764Y677D01*
X774Y677D02*
X783Y677D01*
X794Y677D02*
X804Y677D01*
X826Y677D02*
X835Y677D01*
X865Y677D02*
X875Y677D01*
X898Y677D02*
X907Y677D01*
X937Y677D02*
X947Y677D01*
X990Y677D02*
X999Y677D01*
X1047Y677D02*
X1091Y677D01*
X1213Y677D02*
X1222Y677D01*
X1278Y677D02*
X1287Y677D01*
X1330Y677D02*
X1339Y677D01*
X1369Y677D02*
X1379Y677D01*
X1442Y677D02*
X1451Y677D01*
X424Y676D02*
X433Y676D01*
X499Y676D02*
X513Y676D01*
X558Y676D02*
X567Y676D01*
X610Y676D02*
X619Y676D01*
X649Y676D02*
X658Y676D01*
X682Y676D02*
X695Y676D01*
X722Y676D02*
X731Y676D01*
X755Y676D02*
X764Y676D01*
X774Y676D02*
X783Y676D01*
X794Y676D02*
X804Y676D01*
X826Y676D02*
X835Y676D01*
X866Y676D02*
X875Y676D01*
X898Y676D02*
X907Y676D01*
X938Y676D02*
X947Y676D01*
X990Y676D02*
X999Y676D01*
X1048Y676D02*
X1091Y676D01*
X1213Y676D02*
X1222Y676D01*
X1278Y676D02*
X1287Y676D01*
X1330Y676D02*
X1339Y676D01*
X1370Y676D02*
X1379Y676D01*
X1442Y676D02*
X1451Y676D01*
X424Y675D02*
X433Y675D01*
X496Y675D02*
X512Y675D01*
X558Y675D02*
X567Y675D01*
X610Y675D02*
X619Y675D01*
X649Y675D02*
X658Y675D01*
X682Y675D02*
X693Y675D01*
X722Y675D02*
X731Y675D01*
X755Y675D02*
X764Y675D01*
X774Y675D02*
X783Y675D01*
X794Y675D02*
X804Y675D01*
X826Y675D02*
X835Y675D01*
X866Y675D02*
X875Y675D01*
X898Y675D02*
X907Y675D01*
X938Y675D02*
X947Y675D01*
X990Y675D02*
X999Y675D01*
X1049Y675D02*
X1091Y675D01*
X1213Y675D02*
X1222Y675D01*
X1278Y675D02*
X1287Y675D01*
X1330Y675D02*
X1339Y675D01*
X1370Y675D02*
X1379Y675D01*
X1442Y675D02*
X1451Y675D01*
X424Y674D02*
X433Y674D01*
X494Y674D02*
X512Y674D01*
X558Y674D02*
X567Y674D01*
X610Y674D02*
X619Y674D01*
X649Y674D02*
X658Y674D01*
X682Y674D02*
X692Y674D01*
X722Y674D02*
X731Y674D01*
X754Y674D02*
X764Y674D01*
X774Y674D02*
X783Y674D01*
X794Y674D02*
X804Y674D01*
X826Y674D02*
X835Y674D01*
X866Y674D02*
X875Y674D01*
X898Y674D02*
X907Y674D01*
X938Y674D02*
X947Y674D01*
X990Y674D02*
X999Y674D01*
X1048Y674D02*
X1091Y674D01*
X1213Y674D02*
X1222Y674D01*
X1278Y674D02*
X1287Y674D01*
X1330Y674D02*
X1339Y674D01*
X1370Y674D02*
X1379Y674D01*
X1442Y674D02*
X1451Y674D01*
X424Y673D02*
X433Y673D01*
X492Y673D02*
X511Y673D01*
X558Y673D02*
X567Y673D01*
X610Y673D02*
X619Y673D01*
X649Y673D02*
X658Y673D01*
X682Y673D02*
X692Y673D01*
X722Y673D02*
X731Y673D01*
X754Y673D02*
X763Y673D01*
X774Y673D02*
X783Y673D01*
X794Y673D02*
X804Y673D01*
X826Y673D02*
X835Y673D01*
X866Y673D02*
X875Y673D01*
X898Y673D02*
X907Y673D01*
X938Y673D02*
X947Y673D01*
X990Y673D02*
X999Y673D01*
X1047Y673D02*
X1091Y673D01*
X1213Y673D02*
X1222Y673D01*
X1278Y673D02*
X1287Y673D01*
X1330Y673D02*
X1339Y673D01*
X1370Y673D02*
X1379Y673D01*
X1442Y673D02*
X1451Y673D01*
X424Y672D02*
X433Y672D01*
X489Y672D02*
X510Y672D01*
X558Y672D02*
X567Y672D01*
X610Y672D02*
X619Y672D01*
X649Y672D02*
X658Y672D01*
X682Y672D02*
X691Y672D01*
X722Y672D02*
X731Y672D01*
X754Y672D02*
X763Y672D01*
X774Y672D02*
X783Y672D01*
X794Y672D02*
X804Y672D01*
X826Y672D02*
X835Y672D01*
X866Y672D02*
X875Y672D01*
X898Y672D02*
X907Y672D01*
X938Y672D02*
X947Y672D01*
X990Y672D02*
X999Y672D01*
X1046Y672D02*
X1091Y672D01*
X1213Y672D02*
X1222Y672D01*
X1278Y672D02*
X1287Y672D01*
X1330Y672D02*
X1339Y672D01*
X1370Y672D02*
X1379Y672D01*
X1442Y672D02*
X1451Y672D01*
X424Y671D02*
X433Y671D01*
X487Y671D02*
X509Y671D01*
X558Y671D02*
X567Y671D01*
X610Y671D02*
X619Y671D01*
X649Y671D02*
X658Y671D01*
X682Y671D02*
X691Y671D01*
X722Y671D02*
X731Y671D01*
X754Y671D02*
X763Y671D01*
X774Y671D02*
X783Y671D01*
X794Y671D02*
X804Y671D01*
X826Y671D02*
X835Y671D01*
X866Y671D02*
X875Y671D01*
X898Y671D02*
X907Y671D01*
X938Y671D02*
X947Y671D01*
X990Y671D02*
X999Y671D01*
X1045Y671D02*
X1091Y671D01*
X1213Y671D02*
X1222Y671D01*
X1278Y671D02*
X1287Y671D01*
X1330Y671D02*
X1339Y671D01*
X1370Y671D02*
X1379Y671D01*
X1442Y671D02*
X1451Y671D01*
X424Y670D02*
X433Y670D01*
X485Y670D02*
X508Y670D01*
X558Y670D02*
X567Y670D01*
X610Y670D02*
X619Y670D01*
X649Y670D02*
X658Y670D01*
X682Y670D02*
X691Y670D01*
X722Y670D02*
X731Y670D01*
X754Y670D02*
X763Y670D01*
X774Y670D02*
X783Y670D01*
X794Y670D02*
X804Y670D01*
X826Y670D02*
X835Y670D01*
X866Y670D02*
X875Y670D01*
X898Y670D02*
X907Y670D01*
X938Y670D02*
X947Y670D01*
X990Y670D02*
X999Y670D01*
X1045Y670D02*
X1058Y670D01*
X1082Y670D02*
X1091Y670D01*
X1213Y670D02*
X1222Y670D01*
X1278Y670D02*
X1287Y670D01*
X1330Y670D02*
X1339Y670D01*
X1370Y670D02*
X1379Y670D01*
X1442Y670D02*
X1451Y670D01*
X424Y669D02*
X433Y669D01*
X483Y669D02*
X507Y669D01*
X558Y669D02*
X567Y669D01*
X610Y669D02*
X619Y669D01*
X649Y669D02*
X658Y669D01*
X682Y669D02*
X691Y669D01*
X722Y669D02*
X731Y669D01*
X754Y669D02*
X763Y669D01*
X774Y669D02*
X783Y669D01*
X794Y669D02*
X804Y669D01*
X826Y669D02*
X835Y669D01*
X866Y669D02*
X875Y669D01*
X898Y669D02*
X907Y669D01*
X938Y669D02*
X947Y669D01*
X990Y669D02*
X999Y669D01*
X1044Y669D02*
X1056Y669D01*
X1082Y669D02*
X1091Y669D01*
X1213Y669D02*
X1222Y669D01*
X1278Y669D02*
X1287Y669D01*
X1330Y669D02*
X1339Y669D01*
X1370Y669D02*
X1379Y669D01*
X1442Y669D02*
X1451Y669D01*
X424Y668D02*
X433Y668D01*
X480Y668D02*
X505Y668D01*
X558Y668D02*
X567Y668D01*
X610Y668D02*
X619Y668D01*
X649Y668D02*
X658Y668D01*
X682Y668D02*
X691Y668D01*
X722Y668D02*
X731Y668D01*
X754Y668D02*
X763Y668D01*
X774Y668D02*
X783Y668D01*
X794Y668D02*
X804Y668D01*
X826Y668D02*
X835Y668D01*
X866Y668D02*
X875Y668D01*
X898Y668D02*
X907Y668D01*
X938Y668D02*
X947Y668D01*
X990Y668D02*
X999Y668D01*
X1044Y668D02*
X1055Y668D01*
X1082Y668D02*
X1091Y668D01*
X1213Y668D02*
X1222Y668D01*
X1278Y668D02*
X1287Y668D01*
X1330Y668D02*
X1339Y668D01*
X1370Y668D02*
X1379Y668D01*
X1442Y668D02*
X1451Y668D01*
X424Y667D02*
X433Y667D01*
X478Y667D02*
X502Y667D01*
X558Y667D02*
X567Y667D01*
X610Y667D02*
X619Y667D01*
X649Y667D02*
X658Y667D01*
X682Y667D02*
X691Y667D01*
X722Y667D02*
X731Y667D01*
X754Y667D02*
X763Y667D01*
X774Y667D02*
X783Y667D01*
X794Y667D02*
X804Y667D01*
X826Y667D02*
X835Y667D01*
X866Y667D02*
X875Y667D01*
X898Y667D02*
X907Y667D01*
X938Y667D02*
X947Y667D01*
X990Y667D02*
X999Y667D01*
X1043Y667D02*
X1054Y667D01*
X1082Y667D02*
X1091Y667D01*
X1213Y667D02*
X1222Y667D01*
X1278Y667D02*
X1287Y667D01*
X1330Y667D02*
X1379Y667D01*
X1442Y667D02*
X1451Y667D01*
X424Y666D02*
X433Y666D01*
X476Y666D02*
X500Y666D01*
X558Y666D02*
X567Y666D01*
X610Y666D02*
X619Y666D01*
X649Y666D02*
X658Y666D01*
X682Y666D02*
X691Y666D01*
X722Y666D02*
X731Y666D01*
X754Y666D02*
X763Y666D01*
X774Y666D02*
X783Y666D01*
X794Y666D02*
X804Y666D01*
X826Y666D02*
X835Y666D01*
X866Y666D02*
X875Y666D01*
X898Y666D02*
X907Y666D01*
X938Y666D02*
X947Y666D01*
X990Y666D02*
X999Y666D01*
X1043Y666D02*
X1053Y666D01*
X1082Y666D02*
X1091Y666D01*
X1213Y666D02*
X1222Y666D01*
X1278Y666D02*
X1287Y666D01*
X1330Y666D02*
X1379Y666D01*
X1442Y666D02*
X1451Y666D01*
X424Y665D02*
X433Y665D01*
X474Y665D02*
X498Y665D01*
X558Y665D02*
X567Y665D01*
X610Y665D02*
X619Y665D01*
X649Y665D02*
X658Y665D01*
X682Y665D02*
X691Y665D01*
X722Y665D02*
X731Y665D01*
X754Y665D02*
X763Y665D01*
X774Y665D02*
X783Y665D01*
X794Y665D02*
X804Y665D01*
X826Y665D02*
X835Y665D01*
X866Y665D02*
X875Y665D01*
X898Y665D02*
X907Y665D01*
X938Y665D02*
X947Y665D01*
X990Y665D02*
X999Y665D01*
X1043Y665D02*
X1052Y665D01*
X1082Y665D02*
X1091Y665D01*
X1213Y665D02*
X1222Y665D01*
X1278Y665D02*
X1287Y665D01*
X1330Y665D02*
X1379Y665D01*
X1442Y665D02*
X1451Y665D01*
X424Y664D02*
X433Y664D01*
X472Y664D02*
X495Y664D01*
X558Y664D02*
X567Y664D01*
X610Y664D02*
X619Y664D01*
X649Y664D02*
X658Y664D01*
X682Y664D02*
X691Y664D01*
X722Y664D02*
X731Y664D01*
X754Y664D02*
X763Y664D01*
X774Y664D02*
X783Y664D01*
X794Y664D02*
X804Y664D01*
X826Y664D02*
X835Y664D01*
X866Y664D02*
X875Y664D01*
X898Y664D02*
X907Y664D01*
X938Y664D02*
X947Y664D01*
X990Y664D02*
X999Y664D01*
X1042Y664D02*
X1052Y664D01*
X1082Y664D02*
X1091Y664D01*
X1213Y664D02*
X1222Y664D01*
X1278Y664D02*
X1287Y664D01*
X1330Y664D02*
X1379Y664D01*
X1442Y664D02*
X1451Y664D01*
X424Y663D02*
X433Y663D01*
X471Y663D02*
X493Y663D01*
X558Y663D02*
X567Y663D01*
X610Y663D02*
X619Y663D01*
X649Y663D02*
X658Y663D01*
X682Y663D02*
X691Y663D01*
X722Y663D02*
X731Y663D01*
X754Y663D02*
X763Y663D01*
X774Y663D02*
X783Y663D01*
X794Y663D02*
X804Y663D01*
X826Y663D02*
X835Y663D01*
X866Y663D02*
X875Y663D01*
X898Y663D02*
X907Y663D01*
X938Y663D02*
X947Y663D01*
X990Y663D02*
X999Y663D01*
X1042Y663D02*
X1051Y663D01*
X1082Y663D02*
X1091Y663D01*
X1213Y663D02*
X1222Y663D01*
X1278Y663D02*
X1287Y663D01*
X1330Y663D02*
X1379Y663D01*
X1442Y663D02*
X1451Y663D01*
X424Y662D02*
X433Y662D01*
X470Y662D02*
X491Y662D01*
X558Y662D02*
X567Y662D01*
X610Y662D02*
X619Y662D01*
X649Y662D02*
X658Y662D01*
X682Y662D02*
X691Y662D01*
X722Y662D02*
X731Y662D01*
X754Y662D02*
X763Y662D01*
X774Y662D02*
X783Y662D01*
X794Y662D02*
X804Y662D01*
X826Y662D02*
X835Y662D01*
X866Y662D02*
X875Y662D01*
X898Y662D02*
X907Y662D01*
X938Y662D02*
X947Y662D01*
X990Y662D02*
X999Y662D01*
X1042Y662D02*
X1051Y662D01*
X1082Y662D02*
X1091Y662D01*
X1213Y662D02*
X1222Y662D01*
X1278Y662D02*
X1287Y662D01*
X1330Y662D02*
X1379Y662D01*
X1442Y662D02*
X1451Y662D01*
X424Y661D02*
X433Y661D01*
X469Y661D02*
X488Y661D01*
X558Y661D02*
X567Y661D01*
X610Y661D02*
X619Y661D01*
X649Y661D02*
X658Y661D01*
X682Y661D02*
X691Y661D01*
X722Y661D02*
X731Y661D01*
X754Y661D02*
X763Y661D01*
X774Y661D02*
X783Y661D01*
X794Y661D02*
X804Y661D01*
X826Y661D02*
X835Y661D01*
X866Y661D02*
X875Y661D01*
X898Y661D02*
X907Y661D01*
X938Y661D02*
X947Y661D01*
X990Y661D02*
X999Y661D01*
X1042Y661D02*
X1051Y661D01*
X1082Y661D02*
X1091Y661D01*
X1213Y661D02*
X1222Y661D01*
X1278Y661D02*
X1287Y661D01*
X1330Y661D02*
X1379Y661D01*
X1442Y661D02*
X1451Y661D01*
X424Y660D02*
X433Y660D01*
X469Y660D02*
X486Y660D01*
X558Y660D02*
X567Y660D01*
X610Y660D02*
X619Y660D01*
X649Y660D02*
X658Y660D01*
X682Y660D02*
X691Y660D01*
X722Y660D02*
X731Y660D01*
X754Y660D02*
X763Y660D01*
X774Y660D02*
X783Y660D01*
X794Y660D02*
X804Y660D01*
X826Y660D02*
X835Y660D01*
X866Y660D02*
X875Y660D01*
X898Y660D02*
X907Y660D01*
X938Y660D02*
X947Y660D01*
X990Y660D02*
X999Y660D01*
X1042Y660D02*
X1051Y660D01*
X1082Y660D02*
X1091Y660D01*
X1213Y660D02*
X1222Y660D01*
X1278Y660D02*
X1287Y660D01*
X1331Y660D02*
X1379Y660D01*
X1442Y660D02*
X1451Y660D01*
X424Y659D02*
X433Y659D01*
X468Y659D02*
X484Y659D01*
X558Y659D02*
X567Y659D01*
X610Y659D02*
X619Y659D01*
X649Y659D02*
X658Y659D01*
X682Y659D02*
X691Y659D01*
X722Y659D02*
X731Y659D01*
X754Y659D02*
X763Y659D01*
X774Y659D02*
X783Y659D01*
X794Y659D02*
X804Y659D01*
X826Y659D02*
X835Y659D01*
X866Y659D02*
X875Y659D01*
X898Y659D02*
X907Y659D01*
X938Y659D02*
X947Y659D01*
X990Y659D02*
X999Y659D01*
X1042Y659D02*
X1051Y659D01*
X1082Y659D02*
X1091Y659D01*
X1213Y659D02*
X1222Y659D01*
X1278Y659D02*
X1287Y659D01*
X1332Y659D02*
X1379Y659D01*
X1442Y659D02*
X1451Y659D01*
X424Y658D02*
X433Y658D01*
X467Y658D02*
X481Y658D01*
X558Y658D02*
X567Y658D01*
X610Y658D02*
X619Y658D01*
X649Y658D02*
X658Y658D01*
X682Y658D02*
X691Y658D01*
X722Y658D02*
X731Y658D01*
X754Y658D02*
X763Y658D01*
X774Y658D02*
X783Y658D01*
X794Y658D02*
X804Y658D01*
X826Y658D02*
X835Y658D01*
X866Y658D02*
X875Y658D01*
X898Y658D02*
X907Y658D01*
X938Y658D02*
X947Y658D01*
X990Y658D02*
X999Y658D01*
X1042Y658D02*
X1051Y658D01*
X1082Y658D02*
X1091Y658D01*
X1213Y658D02*
X1222Y658D01*
X1278Y658D02*
X1287Y658D01*
X1333Y658D02*
X1379Y658D01*
X1442Y658D02*
X1451Y658D01*
X424Y657D02*
X433Y657D01*
X467Y657D02*
X479Y657D01*
X558Y657D02*
X567Y657D01*
X610Y657D02*
X619Y657D01*
X649Y657D02*
X658Y657D01*
X682Y657D02*
X691Y657D01*
X722Y657D02*
X731Y657D01*
X754Y657D02*
X763Y657D01*
X774Y657D02*
X783Y657D01*
X794Y657D02*
X804Y657D01*
X826Y657D02*
X835Y657D01*
X866Y657D02*
X875Y657D01*
X898Y657D02*
X907Y657D01*
X938Y657D02*
X947Y657D01*
X990Y657D02*
X999Y657D01*
X1042Y657D02*
X1051Y657D01*
X1082Y657D02*
X1091Y657D01*
X1213Y657D02*
X1222Y657D01*
X1278Y657D02*
X1287Y657D01*
X1370Y657D02*
X1379Y657D01*
X1442Y657D02*
X1451Y657D01*
X424Y656D02*
X433Y656D01*
X467Y656D02*
X477Y656D01*
X558Y656D02*
X567Y656D01*
X610Y656D02*
X621Y656D01*
X649Y656D02*
X658Y656D01*
X682Y656D02*
X692Y656D01*
X722Y656D02*
X731Y656D01*
X754Y656D02*
X763Y656D01*
X774Y656D02*
X783Y656D01*
X794Y656D02*
X804Y656D01*
X826Y656D02*
X835Y656D01*
X866Y656D02*
X875Y656D01*
X898Y656D02*
X907Y656D01*
X938Y656D02*
X947Y656D01*
X990Y656D02*
X999Y656D01*
X1042Y656D02*
X1051Y656D01*
X1082Y656D02*
X1091Y656D01*
X1213Y656D02*
X1222Y656D01*
X1278Y656D02*
X1287Y656D01*
X1370Y656D02*
X1379Y656D01*
X1442Y656D02*
X1451Y656D01*
X424Y655D02*
X433Y655D01*
X466Y655D02*
X476Y655D01*
X558Y655D02*
X567Y655D01*
X610Y655D02*
X622Y655D01*
X649Y655D02*
X658Y655D01*
X682Y655D02*
X693Y655D01*
X722Y655D02*
X731Y655D01*
X754Y655D02*
X763Y655D01*
X774Y655D02*
X783Y655D01*
X794Y655D02*
X804Y655D01*
X826Y655D02*
X835Y655D01*
X866Y655D02*
X875Y655D01*
X898Y655D02*
X907Y655D01*
X938Y655D02*
X947Y655D01*
X990Y655D02*
X999Y655D01*
X1042Y655D02*
X1051Y655D01*
X1082Y655D02*
X1091Y655D01*
X1213Y655D02*
X1222Y655D01*
X1278Y655D02*
X1287Y655D01*
X1370Y655D02*
X1379Y655D01*
X1442Y655D02*
X1451Y655D01*
X396Y654D02*
X401Y654D01*
X424Y654D02*
X433Y654D01*
X466Y654D02*
X476Y654D01*
X558Y654D02*
X567Y654D01*
X610Y654D02*
X624Y654D01*
X649Y654D02*
X658Y654D01*
X682Y654D02*
X694Y654D01*
X722Y654D02*
X731Y654D01*
X754Y654D02*
X763Y654D01*
X774Y654D02*
X783Y654D01*
X794Y654D02*
X804Y654D01*
X826Y654D02*
X835Y654D01*
X866Y654D02*
X875Y654D01*
X898Y654D02*
X907Y654D01*
X938Y654D02*
X947Y654D01*
X990Y654D02*
X999Y654D01*
X1042Y654D02*
X1051Y654D01*
X1082Y654D02*
X1091Y654D01*
X1213Y654D02*
X1222Y654D01*
X1278Y654D02*
X1287Y654D01*
X1370Y654D02*
X1379Y654D01*
X1442Y654D02*
X1451Y654D01*
X395Y653D02*
X402Y653D01*
X424Y653D02*
X433Y653D01*
X466Y653D02*
X475Y653D01*
X558Y653D02*
X567Y653D01*
X610Y653D02*
X625Y653D01*
X649Y653D02*
X658Y653D01*
X682Y653D02*
X695Y653D01*
X721Y653D02*
X731Y653D01*
X754Y653D02*
X763Y653D01*
X774Y653D02*
X783Y653D01*
X794Y653D02*
X804Y653D01*
X826Y653D02*
X835Y653D01*
X865Y653D02*
X875Y653D01*
X898Y653D02*
X907Y653D01*
X937Y653D02*
X947Y653D01*
X990Y653D02*
X999Y653D01*
X1042Y653D02*
X1052Y653D01*
X1082Y653D02*
X1091Y653D01*
X1213Y653D02*
X1222Y653D01*
X1278Y653D02*
X1287Y653D01*
X1369Y653D02*
X1379Y653D01*
X1442Y653D02*
X1451Y653D01*
X394Y652D02*
X402Y652D01*
X424Y652D02*
X433Y652D01*
X466Y652D02*
X475Y652D01*
X558Y652D02*
X567Y652D01*
X610Y652D02*
X627Y652D01*
X648Y652D02*
X658Y652D01*
X682Y652D02*
X696Y652D01*
X721Y652D02*
X731Y652D01*
X754Y652D02*
X763Y652D01*
X774Y652D02*
X783Y652D01*
X794Y652D02*
X804Y652D01*
X826Y652D02*
X836Y652D01*
X865Y652D02*
X875Y652D01*
X898Y652D02*
X908Y652D01*
X937Y652D02*
X947Y652D01*
X990Y652D02*
X999Y652D01*
X1043Y652D02*
X1052Y652D01*
X1082Y652D02*
X1091Y652D01*
X1213Y652D02*
X1222Y652D01*
X1278Y652D02*
X1287Y652D01*
X1369Y652D02*
X1379Y652D01*
X1442Y652D02*
X1451Y652D01*
X394Y651D02*
X403Y651D01*
X424Y651D02*
X433Y651D01*
X466Y651D02*
X476Y651D01*
X558Y651D02*
X567Y651D01*
X610Y651D02*
X628Y651D01*
X648Y651D02*
X658Y651D01*
X682Y651D02*
X698Y651D01*
X720Y651D02*
X730Y651D01*
X754Y651D02*
X763Y651D01*
X774Y651D02*
X783Y651D01*
X794Y651D02*
X804Y651D01*
X826Y651D02*
X837Y651D01*
X864Y651D02*
X874Y651D01*
X898Y651D02*
X909Y651D01*
X936Y651D02*
X946Y651D01*
X990Y651D02*
X999Y651D01*
X1043Y651D02*
X1053Y651D01*
X1082Y651D02*
X1091Y651D01*
X1213Y651D02*
X1222Y651D01*
X1278Y651D02*
X1287Y651D01*
X1368Y651D02*
X1378Y651D01*
X1442Y651D02*
X1451Y651D01*
X394Y650D02*
X403Y650D01*
X424Y650D02*
X433Y650D01*
X466Y650D02*
X476Y650D01*
X508Y650D02*
X512Y650D01*
X558Y650D02*
X567Y650D01*
X610Y650D02*
X630Y650D01*
X648Y650D02*
X657Y650D01*
X682Y650D02*
X699Y650D01*
X719Y650D02*
X730Y650D01*
X754Y650D02*
X763Y650D01*
X774Y650D02*
X783Y650D01*
X794Y650D02*
X804Y650D01*
X827Y650D02*
X838Y650D01*
X863Y650D02*
X874Y650D01*
X899Y650D02*
X910Y650D01*
X935Y650D02*
X946Y650D01*
X990Y650D02*
X999Y650D01*
X1043Y650D02*
X1054Y650D01*
X1082Y650D02*
X1091Y650D01*
X1213Y650D02*
X1222Y650D01*
X1278Y650D02*
X1287Y650D01*
X1367Y650D02*
X1378Y650D01*
X1442Y650D02*
X1451Y650D01*
X394Y649D02*
X404Y649D01*
X423Y649D02*
X433Y649D01*
X466Y649D02*
X476Y649D01*
X507Y649D02*
X514Y649D01*
X558Y649D02*
X567Y649D01*
X610Y649D02*
X632Y649D01*
X648Y649D02*
X657Y649D01*
X682Y649D02*
X700Y649D01*
X718Y649D02*
X730Y649D01*
X754Y649D02*
X763Y649D01*
X774Y649D02*
X783Y649D01*
X794Y649D02*
X804Y649D01*
X827Y649D02*
X839Y649D01*
X862Y649D02*
X874Y649D01*
X899Y649D02*
X911Y649D01*
X934Y649D02*
X946Y649D01*
X990Y649D02*
X999Y649D01*
X1043Y649D02*
X1055Y649D01*
X1082Y649D02*
X1091Y649D01*
X1213Y649D02*
X1222Y649D01*
X1278Y649D02*
X1287Y649D01*
X1366Y649D02*
X1378Y649D01*
X1442Y649D02*
X1451Y649D01*
X394Y648D02*
X405Y648D01*
X422Y648D02*
X432Y648D01*
X467Y648D02*
X477Y648D01*
X505Y648D02*
X514Y648D01*
X558Y648D02*
X567Y648D01*
X610Y648D02*
X633Y648D01*
X647Y648D02*
X657Y648D01*
X682Y648D02*
X701Y648D01*
X717Y648D02*
X729Y648D01*
X754Y648D02*
X763Y648D01*
X774Y648D02*
X783Y648D01*
X794Y648D02*
X804Y648D01*
X828Y648D02*
X840Y648D01*
X861Y648D02*
X873Y648D01*
X900Y648D02*
X912Y648D01*
X933Y648D02*
X945Y648D01*
X990Y648D02*
X999Y648D01*
X1044Y648D02*
X1056Y648D01*
X1082Y648D02*
X1091Y648D01*
X1213Y648D02*
X1222Y648D01*
X1278Y648D02*
X1287Y648D01*
X1365Y648D02*
X1377Y648D01*
X1442Y648D02*
X1451Y648D01*
X395Y647D02*
X406Y647D01*
X421Y647D02*
X432Y647D01*
X467Y647D02*
X478Y647D01*
X503Y647D02*
X515Y647D01*
X558Y647D02*
X567Y647D01*
X610Y647D02*
X635Y647D01*
X646Y647D02*
X657Y647D01*
X682Y647D02*
X703Y647D01*
X715Y647D02*
X729Y647D01*
X753Y647D02*
X763Y647D01*
X774Y647D02*
X783Y647D01*
X794Y647D02*
X804Y647D01*
X828Y647D02*
X841Y647D01*
X859Y647D02*
X873Y647D01*
X900Y647D02*
X913Y647D01*
X931Y647D02*
X945Y647D01*
X990Y647D02*
X999Y647D01*
X1045Y647D02*
X1058Y647D01*
X1082Y647D02*
X1091Y647D01*
X1213Y647D02*
X1222Y647D01*
X1278Y647D02*
X1287Y647D01*
X1363Y647D02*
X1377Y647D01*
X1442Y647D02*
X1451Y647D01*
X395Y646D02*
X432Y646D01*
X467Y646D02*
X515Y646D01*
X546Y646D02*
X579Y646D01*
X610Y646D02*
X657Y646D01*
X682Y646D02*
X728Y646D01*
X753Y646D02*
X763Y646D01*
X774Y646D02*
X783Y646D01*
X794Y646D02*
X804Y646D01*
X829Y646D02*
X872Y646D01*
X901Y646D02*
X944Y646D01*
X978Y646D02*
X1011Y646D01*
X1045Y646D02*
X1091Y646D01*
X1213Y646D02*
X1222Y646D01*
X1266Y646D02*
X1299Y646D01*
X1333Y646D02*
X1376Y646D01*
X1405Y646D02*
X1451Y646D01*
X395Y645D02*
X431Y645D01*
X468Y645D02*
X515Y645D01*
X545Y645D02*
X580Y645D01*
X610Y645D02*
X656Y645D01*
X682Y645D02*
X727Y645D01*
X753Y645D02*
X762Y645D01*
X774Y645D02*
X783Y645D01*
X794Y645D02*
X804Y645D01*
X830Y645D02*
X871Y645D01*
X902Y645D02*
X943Y645D01*
X977Y645D02*
X1012Y645D01*
X1046Y645D02*
X1091Y645D01*
X1213Y645D02*
X1222Y645D01*
X1265Y645D02*
X1300Y645D01*
X1331Y645D02*
X1375Y645D01*
X1403Y645D02*
X1451Y645D01*
X396Y644D02*
X431Y644D01*
X468Y644D02*
X514Y644D01*
X544Y644D02*
X581Y644D01*
X610Y644D02*
X619Y644D01*
X622Y644D02*
X656Y644D01*
X682Y644D02*
X726Y644D01*
X753Y644D02*
X762Y644D01*
X774Y644D02*
X783Y644D01*
X794Y644D02*
X804Y644D01*
X831Y644D02*
X870Y644D01*
X903Y644D02*
X942Y644D01*
X976Y644D02*
X1013Y644D01*
X1047Y644D02*
X1091Y644D01*
X1213Y644D02*
X1222Y644D01*
X1264Y644D02*
X1301Y644D01*
X1331Y644D02*
X1374Y644D01*
X1403Y644D02*
X1451Y644D01*
X397Y643D02*
X430Y643D01*
X469Y643D02*
X514Y643D01*
X543Y643D02*
X582Y643D01*
X610Y643D02*
X619Y643D01*
X623Y643D02*
X655Y643D01*
X682Y643D02*
X725Y643D01*
X753Y643D02*
X762Y643D01*
X774Y643D02*
X783Y643D01*
X794Y643D02*
X804Y643D01*
X832Y643D02*
X869Y643D01*
X904Y643D02*
X941Y643D01*
X975Y643D02*
X1014Y643D01*
X1047Y643D02*
X1091Y643D01*
X1213Y643D02*
X1222Y643D01*
X1263Y643D02*
X1302Y643D01*
X1330Y643D02*
X1373Y643D01*
X1402Y643D02*
X1451Y643D01*
X397Y642D02*
X429Y642D01*
X470Y642D02*
X513Y642D01*
X543Y642D02*
X582Y642D01*
X610Y642D02*
X619Y642D01*
X625Y642D02*
X654Y642D01*
X682Y642D02*
X691Y642D01*
X693Y642D02*
X724Y642D01*
X753Y642D02*
X762Y642D01*
X774Y642D02*
X783Y642D01*
X794Y642D02*
X804Y642D01*
X833Y642D02*
X868Y642D01*
X905Y642D02*
X940Y642D01*
X975Y642D02*
X1014Y642D01*
X1048Y642D02*
X1091Y642D01*
X1213Y642D02*
X1222Y642D01*
X1263Y642D02*
X1302Y642D01*
X1330Y642D02*
X1372Y642D01*
X1402Y642D02*
X1451Y642D01*
X398Y641D02*
X429Y641D01*
X471Y641D02*
X512Y641D01*
X543Y641D02*
X582Y641D01*
X610Y641D02*
X619Y641D01*
X626Y641D02*
X653Y641D01*
X682Y641D02*
X691Y641D01*
X694Y641D02*
X723Y641D01*
X753Y641D02*
X762Y641D01*
X774Y641D02*
X783Y641D01*
X795Y641D02*
X803Y641D01*
X834Y641D02*
X867Y641D01*
X906Y641D02*
X939Y641D01*
X975Y641D02*
X1014Y641D01*
X1050Y641D02*
X1091Y641D01*
X1213Y641D02*
X1222Y641D01*
X1263Y641D02*
X1302Y641D01*
X1330Y641D02*
X1371Y641D01*
X1402Y641D02*
X1451Y641D01*
X399Y640D02*
X427Y640D01*
X472Y640D02*
X511Y640D01*
X543Y640D02*
X582Y640D01*
X610Y640D02*
X619Y640D01*
X628Y640D02*
X652Y640D01*
X682Y640D02*
X691Y640D01*
X696Y640D02*
X722Y640D01*
X754Y640D02*
X762Y640D01*
X774Y640D02*
X783Y640D01*
X795Y640D02*
X803Y640D01*
X835Y640D02*
X866Y640D01*
X907Y640D02*
X938Y640D01*
X975Y640D02*
X1014Y640D01*
X1051Y640D02*
X1091Y640D01*
X1214Y640D02*
X1222Y640D01*
X1263Y640D02*
X1302Y640D01*
X1330Y640D02*
X1370Y640D01*
X1402Y640D02*
X1451Y640D01*
X401Y639D02*
X426Y639D01*
X473Y639D02*
X509Y639D01*
X544Y639D02*
X581Y639D01*
X611Y639D02*
X618Y639D01*
X630Y639D02*
X651Y639D01*
X682Y639D02*
X691Y639D01*
X697Y639D02*
X721Y639D01*
X754Y639D02*
X762Y639D01*
X775Y639D02*
X782Y639D01*
X795Y639D02*
X803Y639D01*
X836Y639D02*
X864Y639D01*
X908Y639D02*
X936Y639D01*
X976Y639D02*
X1013Y639D01*
X1053Y639D02*
X1091Y639D01*
X1214Y639D02*
X1222Y639D01*
X1264Y639D02*
X1301Y639D01*
X1331Y639D02*
X1369Y639D01*
X1403Y639D02*
X1451Y639D01*
X402Y638D02*
X424Y638D01*
X475Y638D02*
X507Y638D01*
X544Y638D02*
X580Y638D01*
X611Y638D02*
X618Y638D01*
X631Y638D02*
X649Y638D01*
X682Y638D02*
X691Y638D01*
X699Y638D02*
X719Y638D01*
X755Y638D02*
X761Y638D01*
X775Y638D02*
X781Y638D01*
X796Y638D02*
X802Y638D01*
X838Y638D02*
X863Y638D01*
X910Y638D02*
X935Y638D01*
X976Y638D02*
X1012Y638D01*
X1054Y638D02*
X1091Y638D01*
X1215Y638D02*
X1221Y638D01*
X1264Y638D02*
X1300Y638D01*
X1331Y638D02*
X1367Y638D01*
X1403Y638D02*
X1451Y638D01*
X405Y637D02*
X422Y637D01*
X477Y637D02*
X504Y637D01*
X546Y637D02*
X579Y637D01*
X613Y637D02*
X616Y637D01*
X634Y637D02*
X647Y637D01*
X682Y637D02*
X691Y637D01*
X702Y637D02*
X716Y637D01*
X756Y637D02*
X759Y637D01*
X777Y637D02*
X780Y637D01*
X797Y637D02*
X801Y637D01*
X841Y637D02*
X860Y637D01*
X913Y637D02*
X932Y637D01*
X978Y637D02*
X1011Y637D01*
X1058Y637D02*
X1091Y637D01*
X1216Y637D02*
X1220Y637D01*
X1266Y637D02*
X1299Y637D01*
X1333Y637D02*
X1364Y637D01*
X1405Y637D02*
X1451Y637D01*
X682Y636D02*
X691Y636D01*
X682Y635D02*
X691Y635D01*
X682Y634D02*
X691Y634D01*
X682Y633D02*
X691Y633D01*
X682Y632D02*
X691Y632D01*
X682Y631D02*
X691Y631D01*
X682Y630D02*
X691Y630D01*
X682Y629D02*
X691Y629D01*
X682Y628D02*
X691Y628D01*
X682Y627D02*
X691Y627D01*
X682Y626D02*
X691Y626D01*
X682Y625D02*
X691Y625D01*
X682Y624D02*
X691Y624D01*
X682Y623D02*
X691Y623D01*
X682Y622D02*
X691Y622D01*
X682Y621D02*
X691Y621D01*
X682Y620D02*
X691Y620D01*
X682Y619D02*
X691Y619D01*
X683Y618D02*
X690Y618D01*
X683Y617D02*
X690Y617D01*
X684Y616D02*
X689Y616D01*
X1173Y346D02*
X1199Y346D01*
X1303Y346D02*
X1340Y346D01*
X1453Y346D02*
X1477Y346D01*
X1533Y346D02*
X1559Y346D01*
X1591Y346D02*
X1628Y346D01*
X1663Y346D02*
X1703Y346D01*
X1173Y345D02*
X1200Y345D01*
X1301Y345D02*
X1341Y345D01*
X1452Y345D02*
X1478Y345D01*
X1533Y345D02*
X1560Y345D01*
X1589Y345D02*
X1629Y345D01*
X1661Y345D02*
X1704Y345D01*
X1173Y344D02*
X1201Y344D01*
X1300Y344D02*
X1342Y344D01*
X1451Y344D02*
X1479Y344D01*
X1533Y344D02*
X1561Y344D01*
X1588Y344D02*
X1630Y344D01*
X1660Y344D02*
X1705Y344D01*
X1173Y343D02*
X1201Y343D01*
X1299Y343D02*
X1343Y343D01*
X1451Y343D02*
X1479Y343D01*
X1533Y343D02*
X1561Y343D01*
X1587Y343D02*
X1631Y343D01*
X1659Y343D02*
X1705Y343D01*
X1173Y342D02*
X1202Y342D01*
X1298Y342D02*
X1344Y342D01*
X1451Y342D02*
X1480Y342D01*
X1533Y342D02*
X1562Y342D01*
X1586Y342D02*
X1632Y342D01*
X1658Y342D02*
X1706Y342D01*
X1173Y341D02*
X1201Y341D01*
X1298Y341D02*
X1345Y341D01*
X1451Y341D02*
X1480Y341D01*
X1533Y341D02*
X1561Y341D01*
X1586Y341D02*
X1633Y341D01*
X1658Y341D02*
X1705Y341D01*
X1173Y340D02*
X1201Y340D01*
X1297Y340D02*
X1345Y340D01*
X1451Y340D02*
X1480Y340D01*
X1533Y340D02*
X1561Y340D01*
X1585Y340D02*
X1633Y340D01*
X1657Y340D02*
X1705Y340D01*
X1173Y339D02*
X1201Y339D01*
X1297Y339D02*
X1345Y339D01*
X1451Y339D02*
X1480Y339D01*
X1533Y339D02*
X1561Y339D01*
X1585Y339D02*
X1633Y339D01*
X1657Y339D02*
X1705Y339D01*
X1173Y338D02*
X1200Y338D01*
X1297Y338D02*
X1345Y338D01*
X1451Y338D02*
X1480Y338D01*
X1533Y338D02*
X1560Y338D01*
X1585Y338D02*
X1633Y338D01*
X1657Y338D02*
X1704Y338D01*
X1173Y337D02*
X1198Y337D01*
X1297Y337D02*
X1346Y337D01*
X1451Y337D02*
X1480Y337D01*
X1533Y337D02*
X1558Y337D01*
X1585Y337D02*
X1634Y337D01*
X1657Y337D02*
X1702Y337D01*
X1173Y336D02*
X1182Y336D01*
X1297Y336D02*
X1306Y336D01*
X1336Y336D02*
X1346Y336D01*
X1451Y336D02*
X1460Y336D01*
X1471Y336D02*
X1480Y336D01*
X1533Y336D02*
X1542Y336D01*
X1585Y336D02*
X1594Y336D01*
X1624Y336D02*
X1634Y336D01*
X1657Y336D02*
X1666Y336D01*
X1173Y335D02*
X1182Y335D01*
X1297Y335D02*
X1306Y335D01*
X1336Y335D02*
X1346Y335D01*
X1451Y335D02*
X1460Y335D01*
X1471Y335D02*
X1480Y335D01*
X1533Y335D02*
X1542Y335D01*
X1585Y335D02*
X1594Y335D01*
X1624Y335D02*
X1634Y335D01*
X1657Y335D02*
X1666Y335D01*
X1173Y334D02*
X1182Y334D01*
X1297Y334D02*
X1306Y334D01*
X1336Y334D02*
X1346Y334D01*
X1451Y334D02*
X1460Y334D01*
X1471Y334D02*
X1480Y334D01*
X1533Y334D02*
X1542Y334D01*
X1585Y334D02*
X1594Y334D01*
X1624Y334D02*
X1634Y334D01*
X1657Y334D02*
X1666Y334D01*
X1173Y333D02*
X1182Y333D01*
X1297Y333D02*
X1306Y333D01*
X1336Y333D02*
X1346Y333D01*
X1451Y333D02*
X1460Y333D01*
X1471Y333D02*
X1480Y333D01*
X1533Y333D02*
X1542Y333D01*
X1585Y333D02*
X1594Y333D01*
X1624Y333D02*
X1634Y333D01*
X1657Y333D02*
X1666Y333D01*
X1173Y332D02*
X1182Y332D01*
X1297Y332D02*
X1306Y332D01*
X1336Y332D02*
X1346Y332D01*
X1451Y332D02*
X1460Y332D01*
X1471Y332D02*
X1480Y332D01*
X1533Y332D02*
X1542Y332D01*
X1585Y332D02*
X1594Y332D01*
X1624Y332D02*
X1634Y332D01*
X1657Y332D02*
X1666Y332D01*
X1173Y331D02*
X1182Y331D01*
X1297Y331D02*
X1306Y331D01*
X1336Y331D02*
X1346Y331D01*
X1451Y331D02*
X1460Y331D01*
X1471Y331D02*
X1480Y331D01*
X1533Y331D02*
X1542Y331D01*
X1585Y331D02*
X1594Y331D01*
X1624Y331D02*
X1634Y331D01*
X1657Y331D02*
X1666Y331D01*
X1173Y330D02*
X1182Y330D01*
X1297Y330D02*
X1306Y330D01*
X1336Y330D02*
X1346Y330D01*
X1451Y330D02*
X1460Y330D01*
X1471Y330D02*
X1480Y330D01*
X1533Y330D02*
X1542Y330D01*
X1585Y330D02*
X1594Y330D01*
X1624Y330D02*
X1634Y330D01*
X1657Y330D02*
X1666Y330D01*
X1173Y329D02*
X1182Y329D01*
X1297Y329D02*
X1306Y329D01*
X1336Y329D02*
X1346Y329D01*
X1451Y329D02*
X1460Y329D01*
X1471Y329D02*
X1480Y329D01*
X1533Y329D02*
X1542Y329D01*
X1585Y329D02*
X1594Y329D01*
X1624Y329D02*
X1634Y329D01*
X1657Y329D02*
X1666Y329D01*
X1173Y328D02*
X1182Y328D01*
X1297Y328D02*
X1306Y328D01*
X1336Y328D02*
X1346Y328D01*
X1451Y328D02*
X1460Y328D01*
X1471Y328D02*
X1480Y328D01*
X1533Y328D02*
X1542Y328D01*
X1585Y328D02*
X1594Y328D01*
X1624Y328D02*
X1634Y328D01*
X1657Y328D02*
X1666Y328D01*
X1173Y327D02*
X1182Y327D01*
X1297Y327D02*
X1306Y327D01*
X1336Y327D02*
X1346Y327D01*
X1451Y327D02*
X1460Y327D01*
X1471Y327D02*
X1480Y327D01*
X1533Y327D02*
X1542Y327D01*
X1585Y327D02*
X1594Y327D01*
X1624Y327D02*
X1634Y327D01*
X1657Y327D02*
X1666Y327D01*
X1173Y326D02*
X1182Y326D01*
X1297Y326D02*
X1306Y326D01*
X1336Y326D02*
X1346Y326D01*
X1451Y326D02*
X1460Y326D01*
X1471Y326D02*
X1480Y326D01*
X1533Y326D02*
X1542Y326D01*
X1585Y326D02*
X1594Y326D01*
X1624Y326D02*
X1634Y326D01*
X1657Y326D02*
X1666Y326D01*
X1173Y325D02*
X1182Y325D01*
X1227Y325D02*
X1231Y325D01*
X1267Y325D02*
X1271Y325D01*
X1297Y325D02*
X1306Y325D01*
X1336Y325D02*
X1346Y325D01*
X1451Y325D02*
X1460Y325D01*
X1471Y325D02*
X1480Y325D01*
X1533Y325D02*
X1542Y325D01*
X1585Y325D02*
X1594Y325D01*
X1624Y325D02*
X1634Y325D01*
X1657Y325D02*
X1666Y325D01*
X1173Y324D02*
X1182Y324D01*
X1226Y324D02*
X1233Y324D01*
X1266Y324D02*
X1272Y324D01*
X1297Y324D02*
X1306Y324D01*
X1336Y324D02*
X1346Y324D01*
X1451Y324D02*
X1460Y324D01*
X1471Y324D02*
X1480Y324D01*
X1533Y324D02*
X1542Y324D01*
X1585Y324D02*
X1594Y324D01*
X1624Y324D02*
X1634Y324D01*
X1657Y324D02*
X1666Y324D01*
X1173Y323D02*
X1182Y323D01*
X1225Y323D02*
X1233Y323D01*
X1265Y323D02*
X1273Y323D01*
X1297Y323D02*
X1306Y323D01*
X1336Y323D02*
X1346Y323D01*
X1451Y323D02*
X1460Y323D01*
X1471Y323D02*
X1480Y323D01*
X1533Y323D02*
X1542Y323D01*
X1585Y323D02*
X1594Y323D01*
X1624Y323D02*
X1634Y323D01*
X1657Y323D02*
X1666Y323D01*
X1173Y322D02*
X1182Y322D01*
X1225Y322D02*
X1234Y322D01*
X1265Y322D02*
X1273Y322D01*
X1297Y322D02*
X1306Y322D01*
X1336Y322D02*
X1346Y322D01*
X1451Y322D02*
X1460Y322D01*
X1471Y322D02*
X1480Y322D01*
X1533Y322D02*
X1542Y322D01*
X1585Y322D02*
X1594Y322D01*
X1624Y322D02*
X1634Y322D01*
X1657Y322D02*
X1666Y322D01*
X1173Y321D02*
X1182Y321D01*
X1225Y321D02*
X1234Y321D01*
X1265Y321D02*
X1274Y321D01*
X1297Y321D02*
X1306Y321D01*
X1336Y321D02*
X1346Y321D01*
X1451Y321D02*
X1460Y321D01*
X1471Y321D02*
X1480Y321D01*
X1533Y321D02*
X1542Y321D01*
X1585Y321D02*
X1594Y321D01*
X1624Y321D02*
X1634Y321D01*
X1657Y321D02*
X1666Y321D01*
X1173Y320D02*
X1182Y320D01*
X1225Y320D02*
X1234Y320D01*
X1264Y320D02*
X1274Y320D01*
X1297Y320D02*
X1306Y320D01*
X1336Y320D02*
X1346Y320D01*
X1451Y320D02*
X1460Y320D01*
X1471Y320D02*
X1480Y320D01*
X1533Y320D02*
X1542Y320D01*
X1585Y320D02*
X1594Y320D01*
X1624Y320D02*
X1634Y320D01*
X1657Y320D02*
X1666Y320D01*
X1173Y319D02*
X1182Y319D01*
X1225Y319D02*
X1234Y319D01*
X1264Y319D02*
X1274Y319D01*
X1297Y319D02*
X1306Y319D01*
X1336Y319D02*
X1346Y319D01*
X1451Y319D02*
X1460Y319D01*
X1471Y319D02*
X1480Y319D01*
X1533Y319D02*
X1542Y319D01*
X1585Y319D02*
X1594Y319D01*
X1624Y319D02*
X1634Y319D01*
X1657Y319D02*
X1666Y319D01*
X1173Y318D02*
X1182Y318D01*
X1225Y318D02*
X1234Y318D01*
X1264Y318D02*
X1274Y318D01*
X1297Y318D02*
X1306Y318D01*
X1336Y318D02*
X1346Y318D01*
X1451Y318D02*
X1460Y318D01*
X1471Y318D02*
X1480Y318D01*
X1533Y318D02*
X1542Y318D01*
X1585Y318D02*
X1594Y318D01*
X1624Y318D02*
X1634Y318D01*
X1657Y318D02*
X1666Y318D01*
X1173Y317D02*
X1182Y317D01*
X1225Y317D02*
X1234Y317D01*
X1264Y317D02*
X1274Y317D01*
X1297Y317D02*
X1306Y317D01*
X1336Y317D02*
X1346Y317D01*
X1451Y317D02*
X1460Y317D01*
X1471Y317D02*
X1480Y317D01*
X1533Y317D02*
X1542Y317D01*
X1585Y317D02*
X1594Y317D01*
X1624Y317D02*
X1634Y317D01*
X1657Y317D02*
X1666Y317D01*
X1173Y316D02*
X1182Y316D01*
X1225Y316D02*
X1234Y316D01*
X1264Y316D02*
X1274Y316D01*
X1297Y316D02*
X1306Y316D01*
X1336Y316D02*
X1346Y316D01*
X1451Y316D02*
X1460Y316D01*
X1471Y316D02*
X1480Y316D01*
X1533Y316D02*
X1542Y316D01*
X1585Y316D02*
X1594Y316D01*
X1624Y316D02*
X1634Y316D01*
X1657Y316D02*
X1666Y316D01*
X1173Y315D02*
X1182Y315D01*
X1225Y315D02*
X1234Y315D01*
X1264Y315D02*
X1274Y315D01*
X1297Y315D02*
X1306Y315D01*
X1336Y315D02*
X1346Y315D01*
X1451Y315D02*
X1460Y315D01*
X1471Y315D02*
X1480Y315D01*
X1533Y315D02*
X1542Y315D01*
X1585Y315D02*
X1594Y315D01*
X1624Y315D02*
X1634Y315D01*
X1657Y315D02*
X1666Y315D01*
X1173Y314D02*
X1182Y314D01*
X1225Y314D02*
X1234Y314D01*
X1264Y314D02*
X1274Y314D01*
X1297Y314D02*
X1306Y314D01*
X1336Y314D02*
X1346Y314D01*
X1451Y314D02*
X1460Y314D01*
X1471Y314D02*
X1480Y314D01*
X1533Y314D02*
X1542Y314D01*
X1585Y314D02*
X1594Y314D01*
X1624Y314D02*
X1634Y314D01*
X1657Y314D02*
X1666Y314D01*
X1173Y313D02*
X1182Y313D01*
X1225Y313D02*
X1234Y313D01*
X1264Y313D02*
X1274Y313D01*
X1297Y313D02*
X1306Y313D01*
X1336Y313D02*
X1346Y313D01*
X1450Y313D02*
X1480Y313D01*
X1533Y313D02*
X1542Y313D01*
X1585Y313D02*
X1594Y313D01*
X1624Y313D02*
X1634Y313D01*
X1657Y313D02*
X1666Y313D01*
X1173Y312D02*
X1182Y312D01*
X1225Y312D02*
X1234Y312D01*
X1264Y312D02*
X1274Y312D01*
X1297Y312D02*
X1306Y312D01*
X1336Y312D02*
X1346Y312D01*
X1447Y312D02*
X1484Y312D01*
X1533Y312D02*
X1542Y312D01*
X1585Y312D02*
X1594Y312D01*
X1624Y312D02*
X1634Y312D01*
X1657Y312D02*
X1700Y312D01*
X1173Y311D02*
X1182Y311D01*
X1225Y311D02*
X1235Y311D01*
X1264Y311D02*
X1273Y311D01*
X1297Y311D02*
X1306Y311D01*
X1336Y311D02*
X1346Y311D01*
X1445Y311D02*
X1485Y311D01*
X1533Y311D02*
X1542Y311D01*
X1585Y311D02*
X1594Y311D01*
X1624Y311D02*
X1634Y311D01*
X1657Y311D02*
X1701Y311D01*
X1173Y310D02*
X1182Y310D01*
X1225Y310D02*
X1235Y310D01*
X1263Y310D02*
X1273Y310D01*
X1297Y310D02*
X1306Y310D01*
X1336Y310D02*
X1346Y310D01*
X1444Y310D02*
X1487Y310D01*
X1533Y310D02*
X1542Y310D01*
X1585Y310D02*
X1594Y310D01*
X1624Y310D02*
X1634Y310D01*
X1657Y310D02*
X1702Y310D01*
X1173Y309D02*
X1182Y309D01*
X1226Y309D02*
X1236Y309D01*
X1263Y309D02*
X1273Y309D01*
X1297Y309D02*
X1306Y309D01*
X1336Y309D02*
X1346Y309D01*
X1443Y309D02*
X1487Y309D01*
X1533Y309D02*
X1542Y309D01*
X1585Y309D02*
X1594Y309D01*
X1624Y309D02*
X1634Y309D01*
X1658Y309D02*
X1703Y309D01*
X1173Y308D02*
X1182Y308D01*
X1226Y308D02*
X1236Y308D01*
X1262Y308D02*
X1272Y308D01*
X1297Y308D02*
X1306Y308D01*
X1336Y308D02*
X1346Y308D01*
X1442Y308D02*
X1488Y308D01*
X1533Y308D02*
X1542Y308D01*
X1585Y308D02*
X1594Y308D01*
X1624Y308D02*
X1634Y308D01*
X1658Y308D02*
X1704Y308D01*
X1173Y307D02*
X1182Y307D01*
X1227Y307D02*
X1237Y307D01*
X1262Y307D02*
X1272Y307D01*
X1297Y307D02*
X1306Y307D01*
X1336Y307D02*
X1346Y307D01*
X1442Y307D02*
X1489Y307D01*
X1533Y307D02*
X1542Y307D01*
X1585Y307D02*
X1594Y307D01*
X1624Y307D02*
X1634Y307D01*
X1659Y307D02*
X1705Y307D01*
X1173Y306D02*
X1182Y306D01*
X1227Y306D02*
X1237Y306D01*
X1261Y306D02*
X1271Y306D01*
X1297Y306D02*
X1306Y306D01*
X1336Y306D02*
X1346Y306D01*
X1441Y306D02*
X1489Y306D01*
X1533Y306D02*
X1542Y306D01*
X1585Y306D02*
X1594Y306D01*
X1624Y306D02*
X1634Y306D01*
X1660Y306D02*
X1705Y306D01*
X1173Y305D02*
X1182Y305D01*
X1228Y305D02*
X1237Y305D01*
X1261Y305D02*
X1271Y305D01*
X1297Y305D02*
X1306Y305D01*
X1336Y305D02*
X1346Y305D01*
X1441Y305D02*
X1489Y305D01*
X1533Y305D02*
X1542Y305D01*
X1585Y305D02*
X1594Y305D01*
X1624Y305D02*
X1634Y305D01*
X1661Y305D02*
X1705Y305D01*
X1156Y304D02*
X1159Y304D01*
X1173Y304D02*
X1182Y304D01*
X1228Y304D02*
X1238Y304D01*
X1260Y304D02*
X1271Y304D01*
X1297Y304D02*
X1306Y304D01*
X1336Y304D02*
X1346Y304D01*
X1441Y304D02*
X1489Y304D01*
X1516Y304D02*
X1519Y304D01*
X1533Y304D02*
X1542Y304D01*
X1585Y304D02*
X1594Y304D01*
X1624Y304D02*
X1634Y304D01*
X1662Y304D02*
X1705Y304D01*
X1154Y303D02*
X1160Y303D01*
X1173Y303D02*
X1182Y303D01*
X1228Y303D02*
X1238Y303D01*
X1260Y303D02*
X1270Y303D01*
X1297Y303D02*
X1306Y303D01*
X1336Y303D02*
X1346Y303D01*
X1441Y303D02*
X1490Y303D01*
X1514Y303D02*
X1520Y303D01*
X1533Y303D02*
X1542Y303D01*
X1585Y303D02*
X1594Y303D01*
X1624Y303D02*
X1634Y303D01*
X1666Y303D02*
X1706Y303D01*
X1154Y302D02*
X1161Y302D01*
X1173Y302D02*
X1182Y302D01*
X1229Y302D02*
X1239Y302D01*
X1260Y302D02*
X1270Y302D01*
X1297Y302D02*
X1306Y302D01*
X1336Y302D02*
X1346Y302D01*
X1441Y302D02*
X1450Y302D01*
X1481Y302D02*
X1490Y302D01*
X1514Y302D02*
X1521Y302D01*
X1533Y302D02*
X1542Y302D01*
X1585Y302D02*
X1594Y302D01*
X1624Y302D02*
X1634Y302D01*
X1696Y302D02*
X1706Y302D01*
X1153Y301D02*
X1162Y301D01*
X1173Y301D02*
X1182Y301D01*
X1229Y301D02*
X1239Y301D01*
X1259Y301D02*
X1269Y301D01*
X1297Y301D02*
X1306Y301D01*
X1336Y301D02*
X1346Y301D01*
X1441Y301D02*
X1450Y301D01*
X1481Y301D02*
X1490Y301D01*
X1513Y301D02*
X1522Y301D01*
X1533Y301D02*
X1542Y301D01*
X1585Y301D02*
X1594Y301D01*
X1624Y301D02*
X1634Y301D01*
X1696Y301D02*
X1706Y301D01*
X1153Y300D02*
X1162Y300D01*
X1173Y300D02*
X1182Y300D01*
X1230Y300D02*
X1240Y300D01*
X1259Y300D02*
X1269Y300D01*
X1297Y300D02*
X1306Y300D01*
X1336Y300D02*
X1346Y300D01*
X1441Y300D02*
X1450Y300D01*
X1481Y300D02*
X1490Y300D01*
X1513Y300D02*
X1522Y300D01*
X1533Y300D02*
X1542Y300D01*
X1585Y300D02*
X1594Y300D01*
X1624Y300D02*
X1634Y300D01*
X1696Y300D02*
X1706Y300D01*
X1153Y299D02*
X1162Y299D01*
X1173Y299D02*
X1182Y299D01*
X1230Y299D02*
X1240Y299D01*
X1258Y299D02*
X1268Y299D01*
X1297Y299D02*
X1306Y299D01*
X1336Y299D02*
X1346Y299D01*
X1441Y299D02*
X1450Y299D01*
X1481Y299D02*
X1490Y299D01*
X1513Y299D02*
X1522Y299D01*
X1533Y299D02*
X1542Y299D01*
X1585Y299D02*
X1594Y299D01*
X1624Y299D02*
X1634Y299D01*
X1696Y299D02*
X1706Y299D01*
X1153Y298D02*
X1162Y298D01*
X1173Y298D02*
X1182Y298D01*
X1231Y298D02*
X1241Y298D01*
X1258Y298D02*
X1268Y298D01*
X1297Y298D02*
X1306Y298D01*
X1336Y298D02*
X1346Y298D01*
X1441Y298D02*
X1450Y298D01*
X1481Y298D02*
X1490Y298D01*
X1513Y298D02*
X1522Y298D01*
X1533Y298D02*
X1542Y298D01*
X1585Y298D02*
X1594Y298D01*
X1624Y298D02*
X1634Y298D01*
X1696Y298D02*
X1706Y298D01*
X1153Y297D02*
X1162Y297D01*
X1173Y297D02*
X1182Y297D01*
X1231Y297D02*
X1241Y297D01*
X1257Y297D02*
X1267Y297D01*
X1297Y297D02*
X1306Y297D01*
X1336Y297D02*
X1346Y297D01*
X1441Y297D02*
X1450Y297D01*
X1481Y297D02*
X1490Y297D01*
X1513Y297D02*
X1522Y297D01*
X1533Y297D02*
X1542Y297D01*
X1585Y297D02*
X1594Y297D01*
X1624Y297D02*
X1634Y297D01*
X1696Y297D02*
X1706Y297D01*
X1153Y296D02*
X1162Y296D01*
X1173Y296D02*
X1182Y296D01*
X1231Y296D02*
X1241Y296D01*
X1257Y296D02*
X1267Y296D01*
X1297Y296D02*
X1306Y296D01*
X1336Y296D02*
X1346Y296D01*
X1441Y296D02*
X1450Y296D01*
X1481Y296D02*
X1490Y296D01*
X1513Y296D02*
X1522Y296D01*
X1533Y296D02*
X1542Y296D01*
X1585Y296D02*
X1594Y296D01*
X1624Y296D02*
X1634Y296D01*
X1696Y296D02*
X1706Y296D01*
X1153Y295D02*
X1162Y295D01*
X1173Y295D02*
X1182Y295D01*
X1232Y295D02*
X1242Y295D01*
X1257Y295D02*
X1267Y295D01*
X1297Y295D02*
X1306Y295D01*
X1336Y295D02*
X1346Y295D01*
X1441Y295D02*
X1450Y295D01*
X1481Y295D02*
X1490Y295D01*
X1513Y295D02*
X1522Y295D01*
X1533Y295D02*
X1542Y295D01*
X1585Y295D02*
X1594Y295D01*
X1624Y295D02*
X1634Y295D01*
X1696Y295D02*
X1706Y295D01*
X1153Y294D02*
X1162Y294D01*
X1173Y294D02*
X1182Y294D01*
X1232Y294D02*
X1242Y294D01*
X1256Y294D02*
X1266Y294D01*
X1297Y294D02*
X1306Y294D01*
X1336Y294D02*
X1346Y294D01*
X1441Y294D02*
X1450Y294D01*
X1481Y294D02*
X1490Y294D01*
X1513Y294D02*
X1522Y294D01*
X1533Y294D02*
X1542Y294D01*
X1585Y294D02*
X1594Y294D01*
X1624Y294D02*
X1634Y294D01*
X1696Y294D02*
X1706Y294D01*
X1153Y293D02*
X1162Y293D01*
X1173Y293D02*
X1182Y293D01*
X1233Y293D02*
X1243Y293D01*
X1256Y293D02*
X1266Y293D01*
X1297Y293D02*
X1306Y293D01*
X1336Y293D02*
X1346Y293D01*
X1441Y293D02*
X1450Y293D01*
X1481Y293D02*
X1490Y293D01*
X1513Y293D02*
X1522Y293D01*
X1533Y293D02*
X1542Y293D01*
X1585Y293D02*
X1594Y293D01*
X1624Y293D02*
X1634Y293D01*
X1696Y293D02*
X1706Y293D01*
X1153Y292D02*
X1162Y292D01*
X1173Y292D02*
X1182Y292D01*
X1233Y292D02*
X1243Y292D01*
X1255Y292D02*
X1265Y292D01*
X1297Y292D02*
X1306Y292D01*
X1336Y292D02*
X1346Y292D01*
X1441Y292D02*
X1450Y292D01*
X1481Y292D02*
X1490Y292D01*
X1513Y292D02*
X1522Y292D01*
X1533Y292D02*
X1542Y292D01*
X1585Y292D02*
X1594Y292D01*
X1624Y292D02*
X1634Y292D01*
X1696Y292D02*
X1706Y292D01*
X1153Y291D02*
X1162Y291D01*
X1173Y291D02*
X1182Y291D01*
X1234Y291D02*
X1244Y291D01*
X1255Y291D02*
X1265Y291D01*
X1297Y291D02*
X1306Y291D01*
X1336Y291D02*
X1346Y291D01*
X1441Y291D02*
X1450Y291D01*
X1481Y291D02*
X1490Y291D01*
X1513Y291D02*
X1522Y291D01*
X1533Y291D02*
X1542Y291D01*
X1585Y291D02*
X1594Y291D01*
X1624Y291D02*
X1634Y291D01*
X1696Y291D02*
X1706Y291D01*
X1153Y290D02*
X1162Y290D01*
X1173Y290D02*
X1182Y290D01*
X1234Y290D02*
X1244Y290D01*
X1254Y290D02*
X1264Y290D01*
X1297Y290D02*
X1306Y290D01*
X1336Y290D02*
X1346Y290D01*
X1441Y290D02*
X1450Y290D01*
X1481Y290D02*
X1490Y290D01*
X1513Y290D02*
X1522Y290D01*
X1533Y290D02*
X1542Y290D01*
X1585Y290D02*
X1594Y290D01*
X1624Y290D02*
X1634Y290D01*
X1696Y290D02*
X1706Y290D01*
X1153Y289D02*
X1162Y289D01*
X1173Y289D02*
X1182Y289D01*
X1235Y289D02*
X1245Y289D01*
X1254Y289D02*
X1264Y289D01*
X1297Y289D02*
X1306Y289D01*
X1336Y289D02*
X1346Y289D01*
X1441Y289D02*
X1450Y289D01*
X1481Y289D02*
X1490Y289D01*
X1513Y289D02*
X1522Y289D01*
X1533Y289D02*
X1542Y289D01*
X1585Y289D02*
X1594Y289D01*
X1624Y289D02*
X1634Y289D01*
X1696Y289D02*
X1706Y289D01*
X1153Y288D02*
X1162Y288D01*
X1173Y288D02*
X1182Y288D01*
X1235Y288D02*
X1245Y288D01*
X1254Y288D02*
X1264Y288D01*
X1297Y288D02*
X1306Y288D01*
X1336Y288D02*
X1346Y288D01*
X1441Y288D02*
X1450Y288D01*
X1481Y288D02*
X1490Y288D01*
X1513Y288D02*
X1522Y288D01*
X1533Y288D02*
X1542Y288D01*
X1585Y288D02*
X1594Y288D01*
X1624Y288D02*
X1634Y288D01*
X1696Y288D02*
X1706Y288D01*
X1153Y287D02*
X1162Y287D01*
X1173Y287D02*
X1182Y287D01*
X1235Y287D02*
X1245Y287D01*
X1253Y287D02*
X1263Y287D01*
X1297Y287D02*
X1306Y287D01*
X1336Y287D02*
X1346Y287D01*
X1441Y287D02*
X1450Y287D01*
X1481Y287D02*
X1490Y287D01*
X1513Y287D02*
X1522Y287D01*
X1533Y287D02*
X1542Y287D01*
X1585Y287D02*
X1594Y287D01*
X1624Y287D02*
X1634Y287D01*
X1696Y287D02*
X1706Y287D01*
X1153Y286D02*
X1162Y286D01*
X1173Y286D02*
X1182Y286D01*
X1236Y286D02*
X1246Y286D01*
X1253Y286D02*
X1263Y286D01*
X1297Y286D02*
X1306Y286D01*
X1336Y286D02*
X1346Y286D01*
X1441Y286D02*
X1450Y286D01*
X1481Y286D02*
X1490Y286D01*
X1513Y286D02*
X1522Y286D01*
X1533Y286D02*
X1542Y286D01*
X1585Y286D02*
X1594Y286D01*
X1624Y286D02*
X1634Y286D01*
X1696Y286D02*
X1706Y286D01*
X1153Y285D02*
X1162Y285D01*
X1173Y285D02*
X1182Y285D01*
X1236Y285D02*
X1246Y285D01*
X1252Y285D02*
X1262Y285D01*
X1297Y285D02*
X1306Y285D01*
X1336Y285D02*
X1346Y285D01*
X1441Y285D02*
X1450Y285D01*
X1481Y285D02*
X1490Y285D01*
X1513Y285D02*
X1522Y285D01*
X1533Y285D02*
X1542Y285D01*
X1585Y285D02*
X1594Y285D01*
X1624Y285D02*
X1634Y285D01*
X1696Y285D02*
X1706Y285D01*
X1153Y284D02*
X1162Y284D01*
X1173Y284D02*
X1182Y284D01*
X1237Y284D02*
X1247Y284D01*
X1252Y284D02*
X1262Y284D01*
X1297Y284D02*
X1306Y284D01*
X1336Y284D02*
X1346Y284D01*
X1441Y284D02*
X1450Y284D01*
X1481Y284D02*
X1490Y284D01*
X1513Y284D02*
X1522Y284D01*
X1533Y284D02*
X1542Y284D01*
X1585Y284D02*
X1594Y284D01*
X1624Y284D02*
X1634Y284D01*
X1696Y284D02*
X1706Y284D01*
X1153Y283D02*
X1162Y283D01*
X1173Y283D02*
X1182Y283D01*
X1237Y283D02*
X1247Y283D01*
X1251Y283D02*
X1261Y283D01*
X1297Y283D02*
X1306Y283D01*
X1336Y283D02*
X1346Y283D01*
X1441Y283D02*
X1450Y283D01*
X1481Y283D02*
X1490Y283D01*
X1513Y283D02*
X1522Y283D01*
X1533Y283D02*
X1542Y283D01*
X1585Y283D02*
X1594Y283D01*
X1624Y283D02*
X1634Y283D01*
X1696Y283D02*
X1706Y283D01*
X1153Y282D02*
X1162Y282D01*
X1173Y282D02*
X1182Y282D01*
X1238Y282D02*
X1248Y282D01*
X1251Y282D02*
X1261Y282D01*
X1297Y282D02*
X1306Y282D01*
X1336Y282D02*
X1346Y282D01*
X1441Y282D02*
X1450Y282D01*
X1481Y282D02*
X1490Y282D01*
X1513Y282D02*
X1522Y282D01*
X1533Y282D02*
X1542Y282D01*
X1585Y282D02*
X1594Y282D01*
X1624Y282D02*
X1634Y282D01*
X1696Y282D02*
X1706Y282D01*
X1153Y281D02*
X1162Y281D01*
X1173Y281D02*
X1182Y281D01*
X1238Y281D02*
X1248Y281D01*
X1251Y281D02*
X1260Y281D01*
X1297Y281D02*
X1306Y281D01*
X1336Y281D02*
X1346Y281D01*
X1441Y281D02*
X1450Y281D01*
X1481Y281D02*
X1490Y281D01*
X1513Y281D02*
X1522Y281D01*
X1533Y281D02*
X1542Y281D01*
X1585Y281D02*
X1594Y281D01*
X1624Y281D02*
X1634Y281D01*
X1696Y281D02*
X1706Y281D01*
X1153Y280D02*
X1162Y280D01*
X1173Y280D02*
X1182Y280D01*
X1238Y280D02*
X1248Y280D01*
X1250Y280D02*
X1260Y280D01*
X1297Y280D02*
X1306Y280D01*
X1336Y280D02*
X1346Y280D01*
X1441Y280D02*
X1450Y280D01*
X1481Y280D02*
X1490Y280D01*
X1513Y280D02*
X1522Y280D01*
X1533Y280D02*
X1542Y280D01*
X1585Y280D02*
X1594Y280D01*
X1624Y280D02*
X1634Y280D01*
X1696Y280D02*
X1706Y280D01*
X1153Y279D02*
X1196Y279D01*
X1239Y279D02*
X1260Y279D01*
X1297Y279D02*
X1346Y279D01*
X1441Y279D02*
X1490Y279D01*
X1513Y279D02*
X1556Y279D01*
X1585Y279D02*
X1634Y279D01*
X1662Y279D02*
X1706Y279D01*
X1153Y278D02*
X1199Y278D01*
X1239Y278D02*
X1259Y278D01*
X1297Y278D02*
X1345Y278D01*
X1441Y278D02*
X1489Y278D01*
X1513Y278D02*
X1559Y278D01*
X1585Y278D02*
X1633Y278D01*
X1659Y278D02*
X1706Y278D01*
X1153Y277D02*
X1200Y277D01*
X1240Y277D02*
X1259Y277D01*
X1297Y277D02*
X1345Y277D01*
X1441Y277D02*
X1489Y277D01*
X1513Y277D02*
X1560Y277D01*
X1585Y277D02*
X1633Y277D01*
X1658Y277D02*
X1706Y277D01*
X1153Y276D02*
X1201Y276D01*
X1240Y276D02*
X1258Y276D01*
X1297Y276D02*
X1345Y276D01*
X1441Y276D02*
X1489Y276D01*
X1513Y276D02*
X1561Y276D01*
X1585Y276D02*
X1633Y276D01*
X1657Y276D02*
X1706Y276D01*
X1153Y275D02*
X1201Y275D01*
X1241Y275D02*
X1258Y275D01*
X1298Y275D02*
X1345Y275D01*
X1442Y275D02*
X1489Y275D01*
X1513Y275D02*
X1561Y275D01*
X1586Y275D02*
X1633Y275D01*
X1657Y275D02*
X1706Y275D01*
X1153Y274D02*
X1202Y274D01*
X1241Y274D02*
X1257Y274D01*
X1298Y274D02*
X1344Y274D01*
X1442Y274D02*
X1488Y274D01*
X1513Y274D02*
X1562Y274D01*
X1586Y274D02*
X1632Y274D01*
X1657Y274D02*
X1706Y274D01*
X1153Y273D02*
X1201Y273D01*
X1242Y273D02*
X1257Y273D01*
X1299Y273D02*
X1343Y273D01*
X1443Y273D02*
X1488Y273D01*
X1513Y273D02*
X1561Y273D01*
X1587Y273D02*
X1631Y273D01*
X1657Y273D02*
X1706Y273D01*
X1153Y272D02*
X1201Y272D01*
X1242Y272D02*
X1257Y272D01*
X1300Y272D02*
X1343Y272D01*
X1444Y272D02*
X1487Y272D01*
X1513Y272D02*
X1561Y272D01*
X1588Y272D02*
X1631Y272D01*
X1657Y272D02*
X1706Y272D01*
X1154Y271D02*
X1201Y271D01*
X1243Y271D02*
X1256Y271D01*
X1301Y271D02*
X1341Y271D01*
X1445Y271D02*
X1486Y271D01*
X1514Y271D02*
X1561Y271D01*
X1589Y271D02*
X1629Y271D01*
X1658Y271D02*
X1706Y271D01*
X1155Y270D02*
X1200Y270D01*
X1243Y270D02*
X1255Y270D01*
X1302Y270D02*
X1340Y270D01*
X1446Y270D02*
X1484Y270D01*
X1515Y270D02*
X1560Y270D01*
X1590Y270D02*
X1628Y270D01*
X1659Y270D02*
X1706Y270D01*
X1157Y269D02*
X1197Y269D01*
X1246Y269D02*
X1253Y269D01*
X1306Y269D02*
X1336Y269D01*
X1450Y269D02*
X1481Y269D01*
X1517Y269D02*
X1557Y269D01*
X1594Y269D02*
X1624Y269D01*
X1661Y269D02*
X1705Y269D01*
D02*
G04 End of Silk0*
M02*